G04*
G04 #@! TF.GenerationSoftware,Altium Limited,Altium Designer,25.4.2 (15)*
G04*
G04 Layer_Color=128*
%FSLAX44Y44*%
%MOMM*%
G71*
G04*
G04 #@! TF.SameCoordinates,11C6A8BD-48F9-44D4-97C0-98E840ED0286*
G04*
G04*
G04 #@! TF.FilePolarity,Positive*
G04*
G01*
G75*
%ADD13C,0.1270*%
D13*
X885384Y825435D02*
X896384D01*
X890884Y819935D02*
Y830935D01*
X885384Y774635D02*
X896384D01*
X890884Y769135D02*
Y780135D01*
X885384Y697165D02*
X896384D01*
X890884Y691665D02*
Y702665D01*
X885384Y646365D02*
X896384D01*
X890884Y640865D02*
Y651865D01*
X410446Y706185D02*
X421446D01*
X415946Y700685D02*
Y711685D01*
X410446Y756985D02*
X421446D01*
X415946Y751485D02*
Y762485D01*
X369770Y589280D02*
X394770D01*
X382270Y576780D02*
Y601780D01*
X923490Y584200D02*
X948490D01*
X935990Y571700D02*
Y596700D01*
X365960Y862330D02*
X390960D01*
X378460Y849830D02*
Y874830D01*
X713994Y840740D02*
X721106D01*
X717550Y837184D02*
Y844296D01*
X698561Y791017D02*
X705673D01*
X702117Y787461D02*
Y794573D01*
X465074Y650240D02*
X472186D01*
X468630Y646684D02*
Y653796D01*
X393847Y651008D02*
X400959D01*
X397403Y647452D02*
Y654564D01*
X863854Y607060D02*
X870966D01*
X867410Y603504D02*
Y610616D01*
X402844Y836930D02*
X409956D01*
X406400Y833374D02*
Y840486D01*
X449834Y815340D02*
X456946D01*
X453390Y811784D02*
Y818896D01*
X705104Y613410D02*
X712216D01*
X708660Y609854D02*
Y616966D01*
X491744Y637540D02*
X498856D01*
X495300Y633984D02*
Y641096D01*
X593344Y806450D02*
X600456D01*
X596900Y802894D02*
Y810006D01*
X781304Y831850D02*
X788416D01*
X784860Y828294D02*
Y835406D01*
X698754Y831850D02*
X705866D01*
X702310Y828294D02*
Y835406D01*
X470154Y708660D02*
X477266D01*
X473710Y705104D02*
Y712216D01*
X491744Y734060D02*
X498856D01*
X495300Y730504D02*
Y737616D01*
X468884Y751840D02*
X475996D01*
X472440Y748284D02*
Y755396D01*
X520954Y728980D02*
X528066D01*
X524510Y725424D02*
Y732536D01*
X556514Y740410D02*
X563626D01*
X560070Y736854D02*
Y743966D01*
X491744Y698500D02*
X498856D01*
X495300Y694944D02*
Y702056D01*
X505714Y765810D02*
X512826D01*
X509270Y762254D02*
Y769366D01*
X647954Y754380D02*
X655066D01*
X651510Y750824D02*
Y757936D01*
X585185Y736219D02*
X592297D01*
X588741Y732663D02*
Y739775D01*
X646684Y844550D02*
X653796D01*
X650240Y840994D02*
Y848106D01*
X632714Y857250D02*
X639826D01*
X636270Y853694D02*
Y860806D01*
X698507Y806697D02*
X705619D01*
X702063Y803141D02*
Y810253D01*
X595062Y788670D02*
X602174D01*
X598618Y785114D02*
Y792226D01*
X613664Y763270D02*
X620776D01*
X617220Y759714D02*
Y766826D01*
X697484Y765810D02*
X704596D01*
X701040Y762254D02*
Y769366D01*
X598424Y679069D02*
X605536D01*
X601980Y675513D02*
Y682625D01*
X774954Y614680D02*
X782066D01*
X778510Y611124D02*
Y618236D01*
X639064Y615950D02*
X646176D01*
X642620Y612394D02*
Y619506D01*
X820674Y737870D02*
X827786D01*
X824230Y734314D02*
Y741426D01*
X705104Y737870D02*
X712216D01*
X708660Y734314D02*
Y741426D01*
X698754Y651510D02*
X705866D01*
X702310Y647954D02*
Y655066D01*
X650494Y736600D02*
X657606D01*
X654050Y733044D02*
Y740156D01*
X716534Y765810D02*
X723646D01*
X720090Y762254D02*
Y769366D01*
X792734Y702310D02*
X799846D01*
X796290Y698754D02*
Y705866D01*
M02*
