G04*
G04 #@! TF.GenerationSoftware,Altium Limited,Altium Designer,25.4.2 (15)*
G04*
G04 Layer_Color=8388736*
%FSLAX44Y44*%
%MOMM*%
G71*
G04*
G04 #@! TF.SameCoordinates,11C6A8BD-48F9-44D4-97C0-98E840ED0286*
G04*
G04*
G04 #@! TF.FilePolarity,Negative*
G04*
G01*
G75*
%ADD15R,1.2500X1.5000*%
%ADD16R,1.5621X0.8581*%
%ADD18R,0.8000X0.8000*%
%ADD19R,0.8581X1.5621*%
%ADD21R,1.5000X1.2500*%
%ADD22R,0.8000X0.9000*%
%ADD23R,1.0000X1.5000*%
%ADD24R,1.2000X0.9000*%
%ADD25R,0.9000X1.2000*%
%ADD26R,1.7000X1.6800*%
%ADD27R,1.6800X1.7000*%
G04:AMPARAMS|DCode=31|XSize=0.7516mm|YSize=1.7516mm|CornerRadius=0.0996mm|HoleSize=0mm|Usage=FLASHONLY|Rotation=90.000|XOffset=0mm|YOffset=0mm|HoleType=Round|Shape=RoundedRectangle|*
%AMROUNDEDRECTD31*
21,1,0.7516,1.5525,0,0,90.0*
21,1,0.5525,1.7516,0,0,90.0*
1,1,0.1991,0.7763,0.2763*
1,1,0.1991,0.7763,-0.2763*
1,1,0.1991,-0.7763,-0.2763*
1,1,0.1991,-0.7763,0.2763*
%
%ADD31ROUNDEDRECTD31*%
%ADD32R,3.5516X1.9516*%
%ADD33R,1.2516X1.9016*%
%ADD34R,1.9016X1.2516*%
%ADD35R,0.8216X0.8216*%
%ADD36C,1.7516*%
%ADD37R,1.7516X1.7516*%
%ADD38C,3.1016*%
%ADD39C,1.3716*%
D15*
X733850Y844550D02*
D03*
X768350Y844550D02*
D03*
D16*
X494030Y657290D02*
D03*
Y683830D02*
D03*
D18*
X434340Y652780D02*
D03*
X419340D02*
D03*
D19*
X433640Y816610D02*
D03*
X407100D02*
D03*
X602680Y614680D02*
D03*
X629220D02*
D03*
X766380Y716280D02*
D03*
X739840D02*
D03*
X563180Y713740D02*
D03*
X536640D02*
D03*
X616520Y848360D02*
D03*
X589980D02*
D03*
D21*
X808990Y782850D02*
D03*
X808990Y817350D02*
D03*
D22*
X491490Y823350D02*
D03*
Y840350D02*
D03*
D23*
X553210Y845820D02*
D03*
X521210D02*
D03*
D24*
X491490Y773770D02*
D03*
Y752770D02*
D03*
D25*
X538140Y759460D02*
D03*
X559140D02*
D03*
D26*
X570350Y617220D02*
D03*
X534550D02*
D03*
D27*
X669290Y652660D02*
D03*
Y688460D02*
D03*
D31*
X781360Y781050D02*
D03*
Y793750D02*
D03*
Y806450D02*
D03*
Y819150D02*
D03*
X724860Y781050D02*
D03*
Y793750D02*
D03*
Y806450D02*
D03*
Y819150D02*
D03*
X578160Y781050D02*
D03*
Y793750D02*
D03*
Y806450D02*
D03*
Y819150D02*
D03*
X521660Y781050D02*
D03*
Y793750D02*
D03*
Y806450D02*
D03*
Y819150D02*
D03*
X781360Y652780D02*
D03*
Y665480D02*
D03*
Y678180D02*
D03*
Y690880D02*
D03*
X724860Y652780D02*
D03*
Y665480D02*
D03*
Y678180D02*
D03*
Y690880D02*
D03*
X522930Y688340D02*
D03*
Y675640D02*
D03*
Y662940D02*
D03*
Y650240D02*
D03*
X579430Y688340D02*
D03*
Y675640D02*
D03*
Y662940D02*
D03*
Y650240D02*
D03*
X624530Y819150D02*
D03*
Y806450D02*
D03*
Y793750D02*
D03*
Y781050D02*
D03*
X681030Y819150D02*
D03*
Y806450D02*
D03*
Y793750D02*
D03*
Y781050D02*
D03*
D32*
X622300Y737870D02*
D03*
X808990Y615950D02*
D03*
Y848360D02*
D03*
X681990Y737870D02*
D03*
X670560Y614680D02*
D03*
X678180Y848360D02*
D03*
D33*
X761760Y614680D02*
D03*
X731760D02*
D03*
X738110Y755650D02*
D03*
X768110D02*
D03*
D34*
X810260Y656830D02*
D03*
Y686830D02*
D03*
X626110Y685560D02*
D03*
Y655560D02*
D03*
D35*
X492760Y805100D02*
D03*
Y795100D02*
D03*
D36*
X890884Y825435D02*
D03*
Y697165D02*
D03*
X415946Y706185D02*
D03*
D37*
X890884Y774635D02*
D03*
Y646365D02*
D03*
X415946Y756985D02*
D03*
D38*
X382270Y589280D02*
D03*
X935990Y584200D02*
D03*
X378460Y862330D02*
D03*
D39*
X717550Y840740D02*
D03*
X702117Y791017D02*
D03*
X468630Y650240D02*
D03*
X397403Y651008D02*
D03*
X867410Y607060D02*
D03*
X406400Y836930D02*
D03*
X453390Y815340D02*
D03*
X708660Y613410D02*
D03*
X495300Y637540D02*
D03*
X596900Y806450D02*
D03*
X784860Y831850D02*
D03*
X702310D02*
D03*
X473710Y708660D02*
D03*
X495300Y734060D02*
D03*
X472440Y751840D02*
D03*
X524510Y728980D02*
D03*
X560070Y740410D02*
D03*
X495300Y698500D02*
D03*
X509270Y765810D02*
D03*
X651510Y754380D02*
D03*
X588741Y736219D02*
D03*
X650240Y844550D02*
D03*
X636270Y857250D02*
D03*
X702063Y806697D02*
D03*
X598618Y788670D02*
D03*
X617220Y763270D02*
D03*
X701040Y765810D02*
D03*
X601980Y679069D02*
D03*
X778510Y614680D02*
D03*
X642620Y615950D02*
D03*
X824230Y737870D02*
D03*
X708660D02*
D03*
X702310Y651510D02*
D03*
X654050Y736600D02*
D03*
X720090Y765810D02*
D03*
X796290Y702310D02*
D03*
M02*
