G04*
G04 #@! TF.GenerationSoftware,Altium Limited,Altium Designer,25.4.2 (15)*
G04*
G04 Layer_Color=2752767*
%FSLAX44Y44*%
%MOMM*%
G71*
G04*
G04 #@! TF.SameCoordinates,11C6A8BD-48F9-44D4-97C0-98E840ED0286*
G04*
G04*
G04 #@! TF.FilePolarity,Positive*
G04*
G01*
G75*
%ADD13C,0.1270*%
%ADD48C,0.1693*%
D13*
X890884Y820355D02*
X885804Y830515D01*
X895964D01*
X890884Y820355D01*
Y769555D02*
X885804Y779715D01*
X895964D01*
X890884Y769555D01*
Y692085D02*
X885804Y702245D01*
X895964D01*
X890884Y692085D01*
Y641285D02*
X885804Y651445D01*
X895964D01*
X890884Y641285D01*
X415946Y701105D02*
X410866Y711265D01*
X421026D01*
X415946Y701105D01*
Y751905D02*
X410866Y762065D01*
X421026D01*
X415946Y751905D01*
X712470Y835660D02*
Y845820D01*
X722630D01*
Y835660D01*
X712470D01*
X697037Y785937D02*
Y796097D01*
X707197D01*
Y785937D01*
X697037D01*
X463550Y645160D02*
Y655320D01*
X473710D01*
Y645160D01*
X463550D01*
X392323Y645928D02*
Y656088D01*
X402483D01*
Y645928D01*
X392323D01*
X862330Y601980D02*
Y612140D01*
X872490D01*
Y601980D01*
X862330D01*
X401320Y831850D02*
Y842010D01*
X411480D01*
Y831850D01*
X401320D01*
X448310Y810260D02*
Y820420D01*
X458470D01*
Y810260D01*
X448310D01*
X703580Y608330D02*
Y618490D01*
X713740D01*
Y608330D01*
X703580D01*
X490220Y632460D02*
Y642620D01*
X500380D01*
Y632460D01*
X490220D01*
X591820Y801370D02*
Y811530D01*
X601980D01*
Y801370D01*
X591820D01*
X779780Y826770D02*
Y836930D01*
X789940D01*
Y826770D01*
X779780D01*
X697230D02*
Y836930D01*
X707390D01*
Y826770D01*
X697230D01*
X468630Y703580D02*
Y713740D01*
X478790D01*
Y703580D01*
X468630D01*
X490220Y728980D02*
Y739140D01*
X500380D01*
Y728980D01*
X490220D01*
X467360Y746760D02*
Y756920D01*
X477520D01*
Y746760D01*
X467360D01*
X519430Y723900D02*
Y734060D01*
X529590D01*
Y723900D01*
X519430D01*
X554990Y735330D02*
Y745490D01*
X565150D01*
Y735330D01*
X554990D01*
X490220Y693420D02*
Y703580D01*
X500380D01*
Y693420D01*
X490220D01*
X504190Y760730D02*
Y770890D01*
X514350D01*
Y760730D01*
X504190D01*
X646430Y749300D02*
Y759460D01*
X656590D01*
Y749300D01*
X646430D01*
X583661Y731139D02*
Y741299D01*
X593821D01*
Y731139D01*
X583661D01*
X645160Y839470D02*
Y849630D01*
X655320D01*
Y839470D01*
X645160D01*
X631190Y852170D02*
Y862330D01*
X641350D01*
Y852170D01*
X631190D01*
X696983Y801617D02*
Y811777D01*
X707143D01*
Y801617D01*
X696983D01*
X593538Y783590D02*
Y793750D01*
X603698D01*
Y783590D01*
X593538D01*
X612140Y758190D02*
Y768350D01*
X622300D01*
Y758190D01*
X612140D01*
X695960Y760730D02*
Y770890D01*
X706120D01*
Y760730D01*
X695960D01*
X596900Y673989D02*
Y684149D01*
X607060D01*
Y673989D01*
X596900D01*
X773430Y609600D02*
Y619760D01*
X783590D01*
Y609600D01*
X773430D01*
X637540Y610870D02*
Y621030D01*
X647700D01*
Y610870D01*
X637540D01*
X819150Y732790D02*
Y742950D01*
X829310D01*
Y732790D01*
X819150D01*
X703580D02*
Y742950D01*
X713740D01*
Y732790D01*
X703580D01*
X697230Y646430D02*
Y656590D01*
X707390D01*
Y646430D01*
X697230D01*
X648970Y731520D02*
Y741680D01*
X659130D01*
Y731520D01*
X648970D01*
X715010Y760730D02*
Y770890D01*
X725170D01*
Y760730D01*
X715010D01*
X791210Y697230D02*
Y707390D01*
X801370D01*
Y697230D01*
X791210D01*
D48*
X387350Y589280D02*
G03*
X387350Y589280I-5080J0D01*
G01*
X941070Y584200D02*
G03*
X941070Y584200I-5080J0D01*
G01*
X383540Y862330D02*
G03*
X383540Y862330I-5080J0D01*
G01*
M02*
