G04*
G04 #@! TF.GenerationSoftware,Altium Limited,Altium Designer,25.4.2 (15)*
G04*
G04 Layer_Color=32896*
%FSLAX44Y44*%
%MOMM*%
G71*
G04*
G04 #@! TF.SameCoordinates,11C6A8BD-48F9-44D4-97C0-98E840ED0286*
G04*
G04*
G04 #@! TF.FilePolarity,Positive*
G04*
G01*
G75*
%ADD14C,0.1524*%
D14*
X441283Y585723D02*
Y580644D01*
X442976Y585723D02*
X439590D01*
X435116Y580644D02*
X437051Y585723D01*
X438985Y580644D01*
X438260Y582337D02*
X435841D01*
X430303Y584514D02*
X430545Y584997D01*
X431029Y585481D01*
X431512Y585723D01*
X432480D01*
X432963Y585481D01*
X433447Y584997D01*
X433689Y584514D01*
X433931Y583788D01*
Y582579D01*
X433689Y581853D01*
X433447Y581370D01*
X432963Y580886D01*
X432480Y580644D01*
X431512D01*
X431029Y580886D01*
X430545Y581370D01*
X430303Y581853D01*
X428876Y585723D02*
Y580644D01*
X425490Y585723D02*
Y580644D01*
X428876Y583304D02*
X425490D01*
X424087Y585723D02*
X422152Y583304D01*
Y580644D01*
X420218Y585723D02*
X422152Y583304D01*
X419565Y585723D02*
Y580644D01*
X416179Y585723D02*
Y580644D01*
X419565Y583304D02*
X416179D01*
X413325Y585723D02*
X413809Y585481D01*
X414292Y584997D01*
X414534Y584514D01*
X414776Y583788D01*
Y582579D01*
X414534Y581853D01*
X414292Y581370D01*
X413809Y580886D01*
X413325Y580644D01*
X412357D01*
X411874Y580886D01*
X411390Y581370D01*
X411148Y581853D01*
X410906Y582579D01*
Y583788D01*
X411148Y584514D01*
X411390Y584997D01*
X411874Y585481D01*
X412357Y585723D01*
X413325D01*
X409721D02*
Y580644D01*
Y585723D02*
X406335Y580644D01*
Y585723D02*
Y580644D01*
M02*
