G04*
G04 #@! TF.GenerationSoftware,Altium Limited,Altium Designer,25.4.2 (15)*
G04*
G04 Layer_Color=65535*
%FSLAX44Y44*%
%MOMM*%
G71*
G04*
G04 #@! TF.SameCoordinates,11C6A8BD-48F9-44D4-97C0-98E840ED0286*
G04*
G04*
G04 #@! TF.FilePolarity,Positive*
G04*
G01*
G75*
%ADD10C,0.6000*%
%ADD11C,0.2500*%
%ADD12C,0.2000*%
%ADD13C,0.1270*%
%ADD14C,0.1524*%
D10*
X750110Y815100D02*
G03*
X750110Y815100I-3000J0D01*
G01*
X546910D02*
G03*
X546910Y815100I-3000J0D01*
G01*
X750110Y686830D02*
G03*
X750110Y686830I-3000J0D01*
G01*
X548180Y684290D02*
G03*
X548180Y684290I-3000J0D01*
G01*
X649780Y815100D02*
G03*
X649780Y815100I-3000J0D01*
G01*
D11*
X726110Y827900D02*
G03*
X726110Y827900I-1250J0D01*
G01*
X410840Y652780D02*
G03*
X410840Y652780I-1250J0D01*
G01*
X522910Y827900D02*
G03*
X522910Y827900I-1250J0D01*
G01*
X726110Y699630D02*
G03*
X726110Y699630I-1250J0D01*
G01*
X524180Y697090D02*
G03*
X524180Y697090I-1250J0D01*
G01*
X625780Y827900D02*
G03*
X625780Y827900I-1250J0D01*
G01*
X585700Y617220D02*
G03*
X585700Y617220I-1250J0D01*
G01*
X670540Y638560D02*
G03*
X670540Y638560I-1250J0D01*
G01*
D12*
X743850Y852800D02*
X758350D01*
X743850Y836300D02*
X758350D01*
X502280Y664581D02*
Y676539D01*
X485780Y664581D02*
Y676539D01*
X737110Y775100D02*
X769110D01*
X737110Y825100D02*
X769110D01*
Y775100D02*
Y825100D01*
X737110Y775100D02*
Y825100D01*
X418340Y644030D02*
X435340D01*
X418340Y661530D02*
X435340D01*
X414391Y824860D02*
X426349D01*
X414391Y808360D02*
X426349D01*
X533910Y775100D02*
X565910D01*
X533910Y825100D02*
X565910D01*
Y775100D02*
Y825100D01*
X533910Y775100D02*
Y825100D01*
X737110Y646830D02*
X769110D01*
X737110Y696830D02*
X769110D01*
Y646830D02*
Y696830D01*
X737110Y646830D02*
Y696830D01*
X535180Y644290D02*
Y694290D01*
X567180Y644290D02*
Y694290D01*
X535180D02*
X567180D01*
X535180Y644290D02*
X567180D01*
X636780Y775100D02*
Y825100D01*
X668780Y775100D02*
Y825100D01*
X636780D02*
X668780D01*
X636780Y775100D02*
X668780D01*
X609971Y606430D02*
X621929D01*
X609971Y622930D02*
X621929D01*
X747131Y724530D02*
X759089D01*
X747131Y708030D02*
X759089D01*
X543931Y721990D02*
X555889D01*
X543931Y705490D02*
X555889D01*
X800740Y792850D02*
Y807350D01*
X817240Y792850D02*
Y807350D01*
X483490Y823350D02*
Y840350D01*
X499563Y823403D02*
Y840403D01*
X597271Y856610D02*
X609229D01*
X597271Y840110D02*
X609229D01*
X529960Y837320D02*
X544460D01*
X529960Y854320D02*
X544460D01*
X498240Y761020D02*
Y765520D01*
X484740Y761020D02*
Y765520D01*
X546390Y766210D02*
X550890D01*
X546390Y752710D02*
X550890D01*
X529950Y603270D02*
X574950D01*
X529950Y629370D02*
Y631170D01*
Y603270D02*
Y605070D01*
Y631170D02*
X574950D01*
Y629370D02*
Y631170D01*
Y603270D02*
Y605070D01*
X557200Y604220D02*
Y630220D01*
X655340Y648060D02*
Y693060D01*
X681440D02*
X683240D01*
X655340D02*
X657140D01*
X683240Y648060D02*
Y693060D01*
X681440Y648060D02*
X683240D01*
X655340D02*
X657140D01*
X656290Y665810D02*
X682290D01*
X741260Y606680D02*
X752260D01*
X741260Y622680D02*
X752260D01*
X802260Y666330D02*
Y677330D01*
X818260Y666330D02*
Y677330D01*
X747610Y763650D02*
X758610D01*
X747610Y747650D02*
X758610D01*
X634110Y665060D02*
Y676060D01*
X618110Y665060D02*
Y676060D01*
D13*
X921884Y749235D02*
Y850835D01*
X849884Y749235D02*
X921884D01*
X931884D01*
Y850835D01*
X921884D02*
X931884D01*
X849884D02*
X921884D01*
X849884Y749235D02*
Y850835D01*
X921884Y620965D02*
Y722565D01*
X849884Y620965D02*
X921884D01*
X931884D01*
Y722565D01*
X921884D02*
X931884D01*
X849884D02*
X921884D01*
X849884Y620965D02*
Y722565D01*
X384946Y680785D02*
Y782385D01*
X456946D01*
X374946D02*
X384946D01*
X374946Y680785D02*
Y782385D01*
Y680785D02*
X384946D01*
X456946D01*
Y782385D01*
D14*
X746338Y858521D02*
Y863599D01*
X748877D01*
X749724Y862753D01*
Y861060D01*
X748877Y860214D01*
X746338D01*
X748031D02*
X749724Y858521D01*
X751416Y863599D02*
X754802D01*
Y862753D01*
X751416Y859367D01*
Y858521D01*
X488529Y709931D02*
Y715009D01*
X491068D01*
X491914Y714163D01*
Y712470D01*
X491068Y711624D01*
X488529D01*
X490221D02*
X491914Y709931D01*
X493607D02*
X495300D01*
X494453D01*
Y715009D01*
X493607Y714163D01*
X497839Y709931D02*
X499532D01*
X498685D01*
Y715009D01*
X497839Y714163D01*
X836336Y734230D02*
X837182Y735077D01*
Y736770D01*
X836336Y737616D01*
X832950D01*
X832104Y736770D01*
Y735077D01*
X832950Y734230D01*
X834643D01*
Y735923D01*
X832104Y732538D02*
X837182D01*
X832104Y729152D01*
X837182D01*
Y727459D02*
X832104D01*
Y724920D01*
X832950Y724074D01*
X836336D01*
X837182Y724920D01*
Y727459D01*
X839723Y830326D02*
Y826940D01*
X841416Y828633D02*
X838030D01*
X842262Y825248D02*
X838877D01*
X837184Y823555D01*
X838877Y821862D01*
X842262D01*
X841416Y816784D02*
X842262Y817630D01*
Y819323D01*
X841416Y820169D01*
X838030D01*
X837184Y819323D01*
Y817630D01*
X838030Y816784D01*
X841416Y811705D02*
X842262Y812552D01*
Y814245D01*
X841416Y815091D01*
X838030D01*
X837184Y814245D01*
Y812552D01*
X838030Y811705D01*
X838453Y661416D02*
Y658030D01*
X840992Y656338D02*
X837607D01*
X835914Y654645D01*
X837607Y652952D01*
X840992D01*
X840146Y647874D02*
X840992Y648720D01*
Y650413D01*
X840146Y651259D01*
X836760D01*
X835914Y650413D01*
Y648720D01*
X836760Y647874D01*
X840146Y642795D02*
X840992Y643642D01*
Y645334D01*
X840146Y646181D01*
X836760D01*
X835914Y645334D01*
Y643642D01*
X836760Y642795D01*
X390990Y796966D02*
X390143Y797812D01*
X388450D01*
X387604Y796966D01*
Y796120D01*
X388450Y795273D01*
X390143D01*
X390990Y794427D01*
Y793580D01*
X390143Y792734D01*
X388450D01*
X387604Y793580D01*
X396068Y796966D02*
X395221Y797812D01*
X393529D01*
X392682Y796966D01*
Y793580D01*
X393529Y792734D01*
X395221D01*
X396068Y793580D01*
X397761Y795273D02*
X401146D01*
X399454Y796966D02*
Y793580D01*
X392260Y676316D02*
X391413Y677162D01*
X389720D01*
X388874Y676316D01*
Y675470D01*
X389720Y674623D01*
X391413D01*
X392260Y673777D01*
Y672930D01*
X391413Y672084D01*
X389720D01*
X388874Y672930D01*
X397338Y676316D02*
X396492Y677162D01*
X394799D01*
X393952Y676316D01*
Y672930D01*
X394799Y672084D01*
X396492D01*
X397338Y672930D01*
X399031Y674623D02*
X402416D01*
X417408Y797561D02*
Y802639D01*
X419947D01*
X420794Y801793D01*
Y800100D01*
X419947Y799254D01*
X417408D01*
X419101D02*
X420794Y797561D01*
X422486Y801793D02*
X423333Y802639D01*
X425026D01*
X425872Y801793D01*
Y800946D01*
X425026Y800100D01*
X425872Y799254D01*
Y798407D01*
X425026Y797561D01*
X423333D01*
X422486Y798407D01*
Y799254D01*
X423333Y800100D01*
X422486Y800946D01*
Y801793D01*
X423333Y800100D02*
X425026D01*
X423334Y638809D02*
Y633731D01*
X425874D01*
X426720Y634577D01*
Y637963D01*
X425874Y638809D01*
X423334D01*
X428413Y633731D02*
X430106D01*
X429259D01*
Y638809D01*
X428413Y637963D01*
X546502Y803504D02*
Y799272D01*
X547349Y798425D01*
X549041D01*
X549888Y799272D01*
Y803504D01*
X554966Y798425D02*
X551580D01*
X554966Y801811D01*
Y802657D01*
X554120Y803504D01*
X552427D01*
X551580Y802657D01*
X591399Y756919D02*
Y753534D01*
X593092Y751841D01*
X594784Y753534D01*
Y756919D01*
X599863Y756073D02*
X599016Y756919D01*
X597324D01*
X596477Y756073D01*
Y752687D01*
X597324Y751841D01*
X599016D01*
X599863Y752687D01*
X604941Y756073D02*
X604095Y756919D01*
X602402D01*
X601556Y756073D01*
Y752687D01*
X602402Y751841D01*
X604095D01*
X604941Y752687D01*
X853632Y712406D02*
Y717484D01*
X856171D01*
X857017Y716638D01*
Y714945D01*
X856171Y714099D01*
X853632D01*
X858710Y716638D02*
X859557Y717484D01*
X861249D01*
X862096Y716638D01*
Y715791D01*
X861249Y714945D01*
X860403D01*
X861249D01*
X862096Y714099D01*
Y713252D01*
X861249Y712406D01*
X859557D01*
X858710Y713252D01*
X801372Y637539D02*
X803065D01*
X802218D01*
Y632461D01*
X801372D01*
X803065D01*
X805604Y637539D02*
Y632461D01*
X808143D01*
X808990Y633307D01*
Y636693D01*
X808143Y637539D01*
X805604D01*
X814068Y636693D02*
X813222Y637539D01*
X811529D01*
X810682Y636693D01*
Y633307D01*
X811529Y632461D01*
X813222D01*
X814068Y633307D01*
X801795Y867409D02*
X803488D01*
X802642D01*
Y862331D01*
X801795D01*
X803488D01*
X806027Y867409D02*
X807720D01*
X806874D01*
Y862331D01*
X806027D01*
X807720D01*
X810259D02*
Y867409D01*
X813645Y862331D01*
Y867409D01*
X678604Y757343D02*
X677758Y758189D01*
X676065D01*
X675219Y757343D01*
Y753957D01*
X676065Y753111D01*
X677758D01*
X678604Y753957D01*
Y755650D01*
X676912D01*
X680297Y753111D02*
Y758189D01*
X683683Y753111D01*
Y758189D01*
X685376D02*
Y753111D01*
X687915D01*
X688761Y753957D01*
Y757343D01*
X687915Y758189D01*
X685376D01*
X657440Y631190D02*
X660825D01*
X662518Y633729D02*
Y630344D01*
X664211Y628651D01*
X665904Y630344D01*
Y633729D01*
X670982Y632883D02*
X670136Y633729D01*
X668443D01*
X667596Y632883D01*
Y629497D01*
X668443Y628651D01*
X670136D01*
X670982Y629497D01*
X676060Y632883D02*
X675214Y633729D01*
X673521D01*
X672675Y632883D01*
Y629497D01*
X673521Y628651D01*
X675214D01*
X676060Y629497D01*
X673524Y865293D02*
X672678Y866139D01*
X670985D01*
X670139Y865293D01*
Y864446D01*
X670985Y863600D01*
X672678D01*
X673524Y862754D01*
Y861907D01*
X672678Y861061D01*
X670985D01*
X670139Y861907D01*
X678603Y865293D02*
X677756Y866139D01*
X676064D01*
X675217Y865293D01*
Y861907D01*
X676064Y861061D01*
X677756D01*
X678603Y861907D01*
X680296Y863600D02*
X683681D01*
X681988Y865293D02*
Y861907D01*
X856172Y841946D02*
Y847024D01*
X858711D01*
X859557Y846178D01*
Y844485D01*
X858711Y843639D01*
X856172D01*
X864636Y841946D02*
X861250D01*
X864636Y845331D01*
Y846178D01*
X863789Y847024D01*
X862096D01*
X861250Y846178D01*
X748878Y803909D02*
Y799677D01*
X749725Y798831D01*
X751417D01*
X752264Y799677D01*
Y803909D01*
X753956Y803063D02*
X754803Y803909D01*
X756496D01*
X757342Y803063D01*
Y802216D01*
X756496Y801370D01*
X755649D01*
X756496D01*
X757342Y800524D01*
Y799677D01*
X756496Y798831D01*
X754803D01*
X753956Y799677D01*
X747608Y673099D02*
Y668867D01*
X748455Y668021D01*
X750147D01*
X750994Y668867D01*
Y673099D01*
X756072D02*
X752686D01*
Y670560D01*
X754379Y671406D01*
X755226D01*
X756072Y670560D01*
Y668867D01*
X755226Y668021D01*
X753533D01*
X752686Y668867D01*
X548218Y670559D02*
Y666327D01*
X549064Y665481D01*
X550757D01*
X551604Y666327D01*
Y670559D01*
X555836Y665481D02*
Y670559D01*
X553296Y668020D01*
X556682D01*
X648124Y802639D02*
Y798407D01*
X648971Y797561D01*
X650664D01*
X651510Y798407D01*
Y802639D01*
X653203Y797561D02*
X654896D01*
X654049D01*
Y802639D01*
X653203Y801793D01*
X608332Y631191D02*
Y636269D01*
X610871D01*
X611718Y635423D01*
Y633730D01*
X610871Y632884D01*
X608332D01*
X610025D02*
X611718Y631191D01*
X613410D02*
X615103D01*
X614257D01*
Y636269D01*
X613410Y635423D01*
X621028Y631191D02*
X617642D01*
X621028Y634576D01*
Y635423D01*
X620182Y636269D01*
X618489D01*
X617642Y635423D01*
X744222Y732791D02*
Y737869D01*
X746761D01*
X747608Y737023D01*
Y735330D01*
X746761Y734484D01*
X744222D01*
X745915D02*
X747608Y732791D01*
X749300D02*
X750993D01*
X750147D01*
Y737869D01*
X749300Y737023D01*
X753532D02*
X754379Y737869D01*
X756072D01*
X756918Y737023D01*
Y733637D01*
X756072Y732791D01*
X754379D01*
X753532Y733637D01*
Y737023D01*
X543708Y730251D02*
Y735329D01*
X546247D01*
X547094Y734483D01*
Y732790D01*
X546247Y731944D01*
X543708D01*
X545401D02*
X547094Y730251D01*
X548786Y731097D02*
X549633Y730251D01*
X551325D01*
X552172Y731097D01*
Y734483D01*
X551325Y735329D01*
X549633D01*
X548786Y734483D01*
Y733636D01*
X549633Y732790D01*
X552172D01*
X803488Y762001D02*
Y767079D01*
X806027D01*
X806874Y766233D01*
Y764540D01*
X806027Y763694D01*
X803488D01*
X805181D02*
X806874Y762001D01*
X811952Y767079D02*
X810259Y766233D01*
X808566Y764540D01*
Y762847D01*
X809413Y762001D01*
X811106D01*
X811952Y762847D01*
Y763694D01*
X811106Y764540D01*
X808566D01*
X469478Y828041D02*
Y833119D01*
X472017D01*
X472864Y832273D01*
Y830580D01*
X472017Y829734D01*
X469478D01*
X471171D02*
X472864Y828041D01*
X477942Y833119D02*
X474556D01*
Y830580D01*
X476249Y831426D01*
X477096D01*
X477942Y830580D01*
Y828887D01*
X477096Y828041D01*
X475403D01*
X474556Y828887D01*
X626958Y843281D02*
Y848359D01*
X629497D01*
X630344Y847513D01*
Y845820D01*
X629497Y844974D01*
X626958D01*
X628651D02*
X630344Y843281D01*
X634576D02*
Y848359D01*
X632036Y845820D01*
X635422D01*
X568538Y842011D02*
Y847089D01*
X571077D01*
X571924Y846243D01*
Y844550D01*
X571077Y843704D01*
X568538D01*
X570231D02*
X571924Y842011D01*
X573616Y846243D02*
X574463Y847089D01*
X576156D01*
X577002Y846243D01*
Y845396D01*
X576156Y844550D01*
X575309D01*
X576156D01*
X577002Y843704D01*
Y842857D01*
X576156Y842011D01*
X574463D01*
X573616Y842857D01*
X478368Y739141D02*
Y744219D01*
X480907D01*
X481754Y743373D01*
Y741680D01*
X480907Y740834D01*
X478368D01*
X480061D02*
X481754Y739141D01*
X486832D02*
X483446D01*
X486832Y742526D01*
Y743373D01*
X485986Y744219D01*
X484293D01*
X483446Y743373D01*
X522054Y756921D02*
Y761999D01*
X524594D01*
X525440Y761153D01*
Y759460D01*
X524594Y758614D01*
X522054D01*
X523747D02*
X525440Y756921D01*
X527133D02*
X528826D01*
X527979D01*
Y761999D01*
X527133Y761153D01*
X413174Y732791D02*
Y737869D01*
X415714D01*
X416560Y737023D01*
Y735330D01*
X415714Y734484D01*
X413174D01*
X418253Y732791D02*
X419946D01*
X419099D01*
Y737869D01*
X418253Y737023D01*
X512658Y618489D02*
Y613411D01*
X515197D01*
X516044Y614257D01*
Y617643D01*
X515197Y618489D01*
X512658D01*
X517736Y617643D02*
X518583Y618489D01*
X520276D01*
X521122Y617643D01*
Y616796D01*
X520276Y615950D01*
X519429D01*
X520276D01*
X521122Y615104D01*
Y614257D01*
X520276Y613411D01*
X518583D01*
X517736Y614257D01*
X661248Y707509D02*
Y702431D01*
X663787D01*
X664634Y703277D01*
Y706663D01*
X663787Y707509D01*
X661248D01*
X669712Y702431D02*
X666326D01*
X669712Y705816D01*
Y706663D01*
X668866Y707509D01*
X667173D01*
X666326Y706663D01*
X707814Y626533D02*
X706967Y627379D01*
X705275D01*
X704428Y626533D01*
Y623147D01*
X705275Y622301D01*
X706967D01*
X707814Y623147D01*
X712892Y627379D02*
X709506D01*
Y624840D01*
X711199Y625686D01*
X712046D01*
X712892Y624840D01*
Y623147D01*
X712046Y622301D01*
X710353D01*
X709506Y623147D01*
X809414Y707813D02*
X808567Y708659D01*
X806874D01*
X806028Y707813D01*
Y704427D01*
X806874Y703581D01*
X808567D01*
X809414Y704427D01*
X813646Y703581D02*
Y708659D01*
X811106Y706120D01*
X814492D01*
X625264Y701463D02*
X624417Y702309D01*
X622724D01*
X621878Y701463D01*
Y698077D01*
X622724Y697231D01*
X624417D01*
X625264Y698077D01*
X626956Y701463D02*
X627803Y702309D01*
X629496D01*
X630342Y701463D01*
Y700616D01*
X629496Y699770D01*
X628649D01*
X629496D01*
X630342Y698924D01*
Y698077D01*
X629496Y697231D01*
X627803D01*
X626956Y698077D01*
X715434Y756073D02*
X714587Y756919D01*
X712895D01*
X712048Y756073D01*
Y752687D01*
X712895Y751841D01*
X714587D01*
X715434Y752687D01*
X720512Y751841D02*
X717126D01*
X720512Y755226D01*
Y756073D01*
X719666Y756919D01*
X717973D01*
X717126Y756073D01*
X474980Y800523D02*
X474134Y801369D01*
X472441D01*
X471594Y800523D01*
Y797137D01*
X472441Y796291D01*
X474134D01*
X474980Y797137D01*
X476673Y796291D02*
X478366D01*
X477519D01*
Y801369D01*
X476673Y800523D01*
M02*
