G04*
G04 #@! TF.GenerationSoftware,Altium Limited,Altium Designer,25.4.2 (15)*
G04*
G04 Layer_Color=32768*
%FSLAX44Y44*%
%MOMM*%
G71*
G04*
G04 #@! TF.SameCoordinates,11C6A8BD-48F9-44D4-97C0-98E840ED0286*
G04*
G04*
G04 #@! TF.FilePolarity,Positive*
G04*
G01*
G75*
%ADD46C,0.1000*%
%ADD47C,0.0500*%
D46*
X753110Y795100D02*
Y805100D01*
X748110Y800100D02*
X758110D01*
X549910Y795100D02*
Y805100D01*
X544910Y800100D02*
X554910D01*
X753110Y666830D02*
Y676830D01*
X748110Y671830D02*
X758110D01*
X546180Y669290D02*
X556180D01*
X551180Y664290D02*
Y674290D01*
X647780Y800100D02*
X657780D01*
X652780Y795100D02*
Y805100D01*
X741760Y614680D02*
X751760D01*
X746760Y609680D02*
Y619680D01*
X810260Y666830D02*
Y676830D01*
X805260Y671830D02*
X815260D01*
X753110Y750650D02*
Y760650D01*
X748110Y755650D02*
X758110D01*
X621110Y670560D02*
X631110D01*
X626110Y665560D02*
Y675560D01*
D47*
X711610Y770100D02*
X794610D01*
X711610Y830100D02*
X794610D01*
Y770100D02*
Y830100D01*
X711610Y770100D02*
Y830100D01*
X847384Y746735D02*
X934384D01*
Y853335D01*
X847384D02*
X934384D01*
X847384Y746735D02*
Y853335D01*
X508410Y770100D02*
X591410D01*
X508410Y830100D02*
X591410D01*
Y770100D02*
Y830100D01*
X508410Y770100D02*
Y830100D01*
X602550Y749620D02*
X642050D01*
Y726120D02*
Y749620D01*
X602550Y726120D02*
X642050D01*
X602550D02*
Y749620D01*
X847384Y618465D02*
X934384D01*
Y725065D01*
X847384D02*
X934384D01*
X847384Y618465D02*
Y725065D01*
X789240Y627700D02*
X828740D01*
Y604200D02*
Y627700D01*
X789240Y604200D02*
X828740D01*
X789240D02*
Y627700D01*
Y860110D02*
X828740D01*
Y836610D02*
Y860110D01*
X789240Y836610D02*
X828740D01*
X789240D02*
Y860110D01*
X662240Y749620D02*
X701740D01*
Y726120D02*
Y749620D01*
X662240Y726120D02*
X701740D01*
X662240D02*
Y749620D01*
X650810Y626430D02*
X690310D01*
Y602930D02*
Y626430D01*
X650810Y602930D02*
X690310D01*
X650810D02*
Y626430D01*
X658430Y860110D02*
X697930D01*
Y836610D02*
Y860110D01*
X658430Y836610D02*
X697930D01*
X658430D02*
Y860110D01*
X711610Y641830D02*
X794610D01*
X711610Y701830D02*
X794610D01*
Y641830D02*
Y701830D01*
X711610Y641830D02*
Y701830D01*
X509680Y639290D02*
Y699290D01*
X592680Y639290D02*
Y699290D01*
X509680D02*
X592680D01*
X509680Y639290D02*
X592680D01*
X611280Y770100D02*
Y830100D01*
X694280Y770100D02*
Y830100D01*
X611280D02*
X694280D01*
X611280Y770100D02*
X694280D01*
X372446Y784885D02*
X459446D01*
X372446Y678285D02*
Y784885D01*
Y678285D02*
X459446D01*
Y784885D01*
X770260Y603180D02*
Y626180D01*
X723260Y603180D02*
Y626180D01*
Y603180D02*
X770260D01*
X723260Y626180D02*
X770260D01*
X798760Y648330D02*
X821760D01*
X798760Y695330D02*
X821760D01*
X798760Y648330D02*
Y695330D01*
X821760Y648330D02*
Y695330D01*
X729610Y767150D02*
X776610D01*
X729610Y744150D02*
X776610D01*
X729610D02*
Y767150D01*
X776610Y744150D02*
Y767150D01*
X489760Y800100D02*
X495760D01*
X492760Y797100D02*
Y803100D01*
X501760Y786100D02*
Y814100D01*
X483760Y786100D02*
Y814100D01*
X501760D01*
X483760Y786100D02*
X501760D01*
X637610Y647060D02*
Y694060D01*
X614610Y647060D02*
Y694060D01*
X637610D01*
X614610Y647060D02*
X637610D01*
M02*
