G04*
G04 #@! TF.GenerationSoftware,Altium Limited,Altium Designer,25.4.2 (15)*
G04*
G04 Layer_Color=8388736*
%FSLAX44Y44*%
%MOMM*%
G71*
G04*
G04 #@! TF.SameCoordinates,11C6A8BD-48F9-44D4-97C0-98E840ED0286*
G04*
G04*
G04 #@! TF.FilePolarity,Positive*
G04*
G01*
G75*
%ADD12C,0.2000*%
D12*
X735100Y852800D02*
X767100D01*
Y836300D02*
Y852800D01*
X735100Y836300D02*
X767100D01*
X735100D02*
Y852800D01*
X486280Y686060D02*
X501780D01*
X486280Y655060D02*
Y686060D01*
Y655060D02*
X501780D01*
Y686060D01*
X418340Y648280D02*
Y657280D01*
Y648280D02*
X435340D01*
Y657280D01*
X418340D02*
X435340D01*
X404870Y808860D02*
Y824360D01*
Y808860D02*
X435870D01*
Y824360D01*
X404870D02*
X435870D01*
X631450Y606930D02*
Y622430D01*
X600450D02*
X631450D01*
X600450Y606930D02*
Y622430D01*
Y606930D02*
X631450D01*
X737610Y708530D02*
Y724030D01*
Y708530D02*
X768610D01*
Y724030D01*
X737610D02*
X768610D01*
X534410Y705990D02*
Y721490D01*
Y705990D02*
X565410D01*
Y721490D01*
X534410D02*
X565410D01*
X800740Y784100D02*
Y816100D01*
X817240D01*
Y784100D02*
Y816100D01*
X800740Y784100D02*
X817240D01*
X486990Y823350D02*
Y840350D01*
X495990D01*
Y823350D02*
Y840350D01*
X486990Y823350D02*
X495990D01*
X587750Y840610D02*
X618750D01*
X587750D02*
Y856110D01*
X618750D01*
Y840610D02*
Y856110D01*
X521210Y837320D02*
Y854320D01*
Y837320D02*
X553210D01*
Y854320D01*
X521210D02*
X553210D01*
X498240Y752770D02*
Y773770D01*
X484740Y752770D02*
X498240D01*
X484740D02*
Y773770D01*
X498240D01*
X538140Y766210D02*
X559140D01*
Y752710D02*
Y766210D01*
X538140Y752710D02*
X559140D01*
X538140D02*
Y766210D01*
X529950Y603270D02*
X574950D01*
X529950D02*
Y631170D01*
X574950D01*
Y603270D02*
Y631170D01*
X655340Y648060D02*
Y693060D01*
X683240D01*
Y648060D02*
Y693060D01*
X655340Y648060D02*
X683240D01*
M02*
