G04*
G04 #@! TF.GenerationSoftware,Altium Limited,Altium Designer,25.4.2 (15)*
G04*
G04 Layer_Color=16711935*
%FSLAX44Y44*%
%MOMM*%
G71*
G04*
G04 #@! TF.SameCoordinates,11C6A8BD-48F9-44D4-97C0-98E840ED0286*
G04*
G04*
G04 #@! TF.FilePolarity,Positive*
G04*
G01*
G75*
%ADD12C,0.2000*%
%ADD13C,0.1270*%
%ADD46C,0.1000*%
D12*
X904584Y774635D02*
G03*
X904584Y774635I-1000J0D01*
G01*
Y646365D02*
G03*
X904584Y646365I-1000J0D01*
G01*
X404246Y756985D02*
G03*
X404246Y756985I-1000J0D01*
G01*
D13*
X849884Y749235D02*
X931884D01*
Y850835D01*
X849884D02*
X931884D01*
X849884Y749235D02*
Y850835D01*
X606050Y729720D02*
X638550D01*
Y746020D01*
X606050D02*
X638550D01*
X606050Y729720D02*
Y746020D01*
X849884Y620965D02*
X931884D01*
Y722565D01*
X849884D02*
X931884D01*
X849884Y620965D02*
Y722565D01*
X792740Y607800D02*
X825240D01*
Y624100D01*
X792740D02*
X825240D01*
X792740Y607800D02*
Y624100D01*
Y840210D02*
X825240D01*
Y856510D01*
X792740D02*
X825240D01*
X792740Y840210D02*
Y856510D01*
X665740Y729720D02*
X698240D01*
Y746020D01*
X665740D02*
X698240D01*
X665740Y729720D02*
Y746020D01*
X654310Y606530D02*
X686810D01*
Y622830D01*
X654310D02*
X686810D01*
X654310Y606530D02*
Y622830D01*
X661930Y840210D02*
X694430D01*
Y856510D01*
X661930D02*
X694430D01*
X661930Y840210D02*
Y856510D01*
X374946Y782385D02*
X456946D01*
X374946Y680785D02*
Y782385D01*
Y680785D02*
X456946D01*
Y782385D01*
D46*
X747110Y816100D02*
G03*
X747110Y816100I-5000J0D01*
G01*
X543910D02*
G03*
X543910Y816100I-5000J0D01*
G01*
X747110Y687830D02*
G03*
X747110Y687830I-5000J0D01*
G01*
X545180Y685290D02*
G03*
X545180Y685290I-5000J0D01*
G01*
X646780Y816100D02*
G03*
X646780Y816100I-5000J0D01*
G01*
X733110Y775100D02*
X773110D01*
X733110Y825100D02*
X773110D01*
Y775100D02*
Y825100D01*
X733110Y775100D02*
Y825100D01*
X529910Y775100D02*
X569910D01*
X529910Y825100D02*
X569910D01*
Y775100D02*
Y825100D01*
X529910Y775100D02*
Y825100D01*
X733110Y646830D02*
X773110D01*
X733110Y696830D02*
X773110D01*
Y646830D02*
Y696830D01*
X733110Y646830D02*
Y696830D01*
X531180Y644290D02*
Y694290D01*
X571180Y644290D02*
Y694290D01*
X531180D02*
X571180D01*
X531180Y644290D02*
X571180D01*
X632780Y775100D02*
Y825100D01*
X672780Y775100D02*
Y825100D01*
X632780D02*
X672780D01*
X632780Y775100D02*
X672780D01*
X763760Y605680D02*
Y623680D01*
X729760Y605680D02*
Y623680D01*
Y605680D02*
X763760D01*
X729760Y623680D02*
X763760D01*
X801260Y654830D02*
X819260D01*
X801260Y688830D02*
X819260D01*
X801260Y654830D02*
Y688830D01*
X819260Y654830D02*
Y688830D01*
X736110Y764650D02*
X770110D01*
X736110Y746650D02*
X770110D01*
X736110D02*
Y764650D01*
X770110Y746650D02*
Y764650D01*
X495760Y794600D02*
Y805600D01*
X489760Y794600D02*
Y805600D01*
X495760D01*
X489760Y794600D02*
X495760D01*
X635110Y653560D02*
Y687560D01*
X617110Y653560D02*
Y687560D01*
X635110D01*
X617110Y653560D02*
X635110D01*
M02*
