G04*
G04 #@! TF.GenerationSoftware,Altium Limited,Altium Designer,25.4.2 (15)*
G04*
G04 Layer_Color=16711935*
%FSLAX44Y44*%
%MOMM*%
G71*
G04*
G04 #@! TF.SameCoordinates,11C6A8BD-48F9-44D4-97C0-98E840ED0286*
G04*
G04*
G04 #@! TF.FilePolarity,Positive*
G04*
G01*
G75*
%ADD12C,0.2000*%
G36*
X761418Y850245D02*
X761409Y850236D01*
X761391Y850217D01*
X761354Y850180D01*
X761317Y850125D01*
X761261Y850060D01*
X761187Y849986D01*
X761113Y849893D01*
X761030Y849783D01*
X760947Y849672D01*
X760845Y849542D01*
X760743Y849394D01*
X760642Y849246D01*
X760531Y849080D01*
X760420Y848904D01*
X760309Y848710D01*
X760198Y848516D01*
X760189Y848507D01*
X760170Y848470D01*
X760142Y848414D01*
X760096Y848331D01*
X760050Y848229D01*
X759995Y848118D01*
X759930Y847989D01*
X759865Y847841D01*
X759791Y847675D01*
X759708Y847508D01*
X759634Y847323D01*
X759560Y847129D01*
X759412Y846731D01*
X759273Y846306D01*
Y846297D01*
X759264Y846269D01*
X759255Y846223D01*
X759236Y846168D01*
X759218Y846094D01*
X759199Y846001D01*
X759172Y845899D01*
X759153Y845788D01*
X759125Y845659D01*
X759098Y845520D01*
X759051Y845225D01*
X759005Y844901D01*
X758978Y844549D01*
X758173D01*
Y844559D01*
Y844586D01*
Y844623D01*
X758182Y844679D01*
Y844753D01*
X758192Y844845D01*
X758201Y844947D01*
X758210Y845058D01*
X758229Y845188D01*
X758247Y845317D01*
X758275Y845474D01*
X758303Y845631D01*
X758330Y845798D01*
X758367Y845983D01*
X758460Y846362D01*
Y846371D01*
X758469Y846408D01*
X758487Y846463D01*
X758515Y846547D01*
X758543Y846639D01*
X758580Y846750D01*
X758617Y846879D01*
X758672Y847018D01*
X758728Y847175D01*
X758783Y847333D01*
X758922Y847684D01*
X759088Y848054D01*
X759273Y848423D01*
X759283Y848433D01*
X759301Y848470D01*
X759329Y848516D01*
X759366Y848590D01*
X759412Y848673D01*
X759477Y848775D01*
X759541Y848886D01*
X759615Y849006D01*
X759791Y849274D01*
X759976Y849551D01*
X760189Y849838D01*
X760411Y850106D01*
X757276D01*
Y850864D01*
X761418D01*
Y850245D01*
D02*
G37*
G36*
X754142Y850938D02*
X754225D01*
X754419Y850929D01*
X754623Y850901D01*
X754845Y850873D01*
X755048Y850827D01*
X755150Y850800D01*
X755233Y850772D01*
X755242D01*
X755251Y850763D01*
X755307Y850735D01*
X755390Y850698D01*
X755492Y850633D01*
X755603Y850550D01*
X755723Y850439D01*
X755834Y850310D01*
X755945Y850162D01*
Y850152D01*
X755954Y850143D01*
X755991Y850088D01*
X756028Y849995D01*
X756084Y849875D01*
X756130Y849736D01*
X756176Y849570D01*
X756204Y849394D01*
X756213Y849200D01*
Y849191D01*
Y849172D01*
Y849135D01*
X756204Y849089D01*
Y849024D01*
X756195Y848960D01*
X756158Y848802D01*
X756102Y848618D01*
X756028Y848423D01*
X755917Y848229D01*
X755843Y848137D01*
X755769Y848044D01*
X755760Y848035D01*
X755751Y848026D01*
X755723Y847998D01*
X755686Y847970D01*
X755640Y847933D01*
X755584Y847896D01*
X755510Y847850D01*
X755436Y847795D01*
X755344Y847748D01*
X755242Y847702D01*
X755131Y847647D01*
X755011Y847601D01*
X754872Y847564D01*
X754734Y847517D01*
X754577Y847490D01*
X754410Y847462D01*
X754429Y847453D01*
X754466Y847434D01*
X754521Y847397D01*
X754595Y847360D01*
X754762Y847259D01*
X754845Y847194D01*
X754919Y847138D01*
X754937Y847120D01*
X754983Y847074D01*
X755057Y847000D01*
X755150Y846907D01*
X755251Y846778D01*
X755372Y846639D01*
X755492Y846473D01*
X755621Y846288D01*
X756721Y844549D01*
X755668D01*
X754826Y845881D01*
Y845890D01*
X754808Y845909D01*
X754789Y845936D01*
X754762Y845973D01*
X754697Y846075D01*
X754614Y846205D01*
X754512Y846343D01*
X754410Y846491D01*
X754308Y846630D01*
X754216Y846759D01*
X754207Y846768D01*
X754179Y846805D01*
X754133Y846861D01*
X754068Y846926D01*
X753929Y847064D01*
X753855Y847129D01*
X753781Y847185D01*
X753772Y847194D01*
X753754Y847203D01*
X753717Y847222D01*
X753661Y847249D01*
X753606Y847277D01*
X753541Y847305D01*
X753393Y847351D01*
X753384D01*
X753365Y847360D01*
X753328D01*
X753282Y847370D01*
X753217Y847379D01*
X753143D01*
X753042Y847388D01*
X751951D01*
Y844549D01*
X751100D01*
Y850947D01*
X754068D01*
X754142Y850938D01*
D02*
G37*
G36*
X500428Y667592D02*
X500419Y667518D01*
Y667435D01*
X500409Y667241D01*
X500382Y667038D01*
X500354Y666816D01*
X500308Y666612D01*
X500280Y666510D01*
X500252Y666427D01*
Y666418D01*
X500243Y666409D01*
X500215Y666353D01*
X500178Y666270D01*
X500113Y666168D01*
X500030Y666058D01*
X499919Y665937D01*
X499790Y665826D01*
X499642Y665715D01*
X499633D01*
X499623Y665706D01*
X499568Y665669D01*
X499476Y665632D01*
X499355Y665577D01*
X499217Y665530D01*
X499050Y665484D01*
X498875Y665456D01*
X498680Y665447D01*
X498671D01*
X498653D01*
X498616D01*
X498569Y665456D01*
X498505D01*
X498440Y665466D01*
X498283Y665503D01*
X498098Y665558D01*
X497904Y665632D01*
X497710Y665743D01*
X497617Y665817D01*
X497525Y665891D01*
X497515Y665900D01*
X497506Y665910D01*
X497478Y665937D01*
X497451Y665974D01*
X497414Y666021D01*
X497377Y666076D01*
X497331Y666150D01*
X497275Y666224D01*
X497229Y666316D01*
X497183Y666418D01*
X497127Y666529D01*
X497081Y666649D01*
X497044Y666788D01*
X496998Y666927D01*
X496970Y667084D01*
X496942Y667250D01*
X496933Y667232D01*
X496914Y667195D01*
X496878Y667139D01*
X496841Y667065D01*
X496739Y666899D01*
X496674Y666816D01*
X496619Y666742D01*
X496600Y666723D01*
X496554Y666677D01*
X496480Y666603D01*
X496387Y666510D01*
X496258Y666409D01*
X496119Y666289D01*
X495953Y666168D01*
X495768Y666039D01*
X494030Y664939D01*
Y665993D01*
X495361Y666834D01*
X495370D01*
X495389Y666853D01*
X495417Y666871D01*
X495454Y666899D01*
X495555Y666964D01*
X495685Y667047D01*
X495824Y667148D01*
X495971Y667250D01*
X496110Y667352D01*
X496240Y667444D01*
X496249Y667454D01*
X496286Y667481D01*
X496341Y667527D01*
X496406Y667592D01*
X496545Y667731D01*
X496609Y667805D01*
X496665Y667879D01*
X496674Y667888D01*
X496683Y667907D01*
X496702Y667944D01*
X496730Y667999D01*
X496757Y668055D01*
X496785Y668119D01*
X496831Y668267D01*
Y668276D01*
X496841Y668295D01*
Y668332D01*
X496850Y668378D01*
X496859Y668443D01*
Y668517D01*
X496868Y668618D01*
Y669709D01*
X494030D01*
Y670560D01*
X500428D01*
Y667592D01*
D02*
G37*
G36*
X498847Y663829D02*
X498865Y663811D01*
X498875Y663774D01*
X498902Y663728D01*
X498930Y663672D01*
X498967Y663607D01*
X499059Y663450D01*
X499161Y663265D01*
X499291Y663080D01*
X499439Y662886D01*
X499596Y662692D01*
X499605Y662683D01*
X499614Y662674D01*
X499642Y662646D01*
X499670Y662609D01*
X499762Y662526D01*
X499873Y662415D01*
X500003Y662304D01*
X500150Y662184D01*
X500298Y662082D01*
X500456Y661989D01*
Y661481D01*
X494030D01*
Y662267D01*
X499032D01*
X499022Y662276D01*
X498985Y662322D01*
X498930Y662378D01*
X498865Y662470D01*
X498782Y662572D01*
X498690Y662701D01*
X498588Y662849D01*
X498486Y663016D01*
Y663025D01*
X498477Y663034D01*
X498440Y663090D01*
X498394Y663182D01*
X498338Y663293D01*
X498274Y663422D01*
X498209Y663561D01*
X498144Y663700D01*
X498089Y663839D01*
X498847D01*
Y663829D01*
D02*
G37*
G36*
Y658855D02*
X498865Y658837D01*
X498875Y658800D01*
X498902Y658753D01*
X498930Y658698D01*
X498967Y658633D01*
X499059Y658476D01*
X499161Y658291D01*
X499291Y658106D01*
X499439Y657912D01*
X499596Y657718D01*
X499605Y657709D01*
X499614Y657699D01*
X499642Y657672D01*
X499670Y657635D01*
X499762Y657551D01*
X499873Y657441D01*
X500003Y657330D01*
X500150Y657209D01*
X500298Y657108D01*
X500456Y657015D01*
Y656507D01*
X494030D01*
Y657293D01*
X499032D01*
X499022Y657302D01*
X498985Y657348D01*
X498930Y657404D01*
X498865Y657496D01*
X498782Y657598D01*
X498690Y657727D01*
X498588Y657875D01*
X498486Y658042D01*
Y658051D01*
X498477Y658060D01*
X498440Y658115D01*
X498394Y658208D01*
X498338Y658319D01*
X498274Y658448D01*
X498209Y658587D01*
X498144Y658726D01*
X498089Y658864D01*
X498847D01*
Y658855D01*
D02*
G37*
G36*
X435946Y650898D02*
X435163D01*
Y655905D01*
X435146Y655896D01*
X435113Y655863D01*
X435046Y655805D01*
X434963Y655738D01*
X434855Y655655D01*
X434721Y655563D01*
X434580Y655463D01*
X434413Y655363D01*
X434405D01*
X434396Y655355D01*
X434371Y655338D01*
X434338Y655321D01*
X434246Y655271D01*
X434138Y655213D01*
X434013Y655146D01*
X433871Y655080D01*
X433730Y655013D01*
X433588Y654955D01*
Y655721D01*
X433597D01*
X433622Y655738D01*
X433655Y655755D01*
X433697Y655780D01*
X433755Y655805D01*
X433821Y655846D01*
X433980Y655930D01*
X434155Y656038D01*
X434355Y656171D01*
X434546Y656313D01*
X434738Y656471D01*
X434746Y656479D01*
X434763Y656488D01*
X434788Y656513D01*
X434821Y656546D01*
X434905Y656629D01*
X435013Y656746D01*
X435121Y656871D01*
X435238Y657021D01*
X435346Y657171D01*
X435438Y657329D01*
X435946D01*
Y650898D01*
D02*
G37*
G36*
X429306Y657296D02*
X429464D01*
X429648Y657279D01*
X429839Y657263D01*
X430023Y657238D01*
X430181Y657204D01*
X430189D01*
X430206Y657196D01*
X430239Y657188D01*
X430272Y657179D01*
X430322Y657163D01*
X430381Y657146D01*
X430506Y657104D01*
X430656Y657038D01*
X430814Y656963D01*
X430972Y656863D01*
X431122Y656746D01*
X431131Y656738D01*
X431147Y656729D01*
X431172Y656704D01*
X431205Y656671D01*
X431247Y656629D01*
X431297Y656579D01*
X431347Y656521D01*
X431405Y656454D01*
X431530Y656296D01*
X431655Y656105D01*
X431780Y655896D01*
X431880Y655655D01*
Y655646D01*
X431889Y655621D01*
X431905Y655588D01*
X431922Y655538D01*
X431939Y655471D01*
X431964Y655396D01*
X431989Y655313D01*
X432014Y655213D01*
X432030Y655105D01*
X432055Y654988D01*
X432080Y654863D01*
X432097Y654730D01*
X432130Y654438D01*
X432139Y654130D01*
Y654122D01*
Y654097D01*
Y654063D01*
Y654005D01*
X432130Y653947D01*
Y653872D01*
X432122Y653789D01*
X432114Y653697D01*
X432097Y653497D01*
X432064Y653280D01*
X432022Y653055D01*
X431964Y652839D01*
Y652830D01*
X431955Y652814D01*
X431947Y652780D01*
X431930Y652747D01*
X431914Y652697D01*
X431897Y652639D01*
X431847Y652514D01*
X431789Y652364D01*
X431714Y652206D01*
X431622Y652047D01*
X431530Y651906D01*
X431522Y651889D01*
X431480Y651847D01*
X431431Y651781D01*
X431356Y651697D01*
X431272Y651606D01*
X431172Y651506D01*
X431056Y651414D01*
X430939Y651322D01*
X430922Y651314D01*
X430881Y651289D01*
X430814Y651247D01*
X430722Y651206D01*
X430614Y651156D01*
X430481Y651097D01*
X430331Y651048D01*
X430173Y651006D01*
X430164D01*
X430156Y650997D01*
X430131D01*
X430098Y650989D01*
X430056Y650981D01*
X430006Y650973D01*
X429881Y650956D01*
X429731Y650931D01*
X429556Y650914D01*
X429356Y650906D01*
X429148Y650898D01*
X426840D01*
Y657304D01*
X429231D01*
X429306Y657296D01*
D02*
G37*
G36*
X423428Y821847D02*
X423503D01*
X423594Y821838D01*
X423694Y821830D01*
X423902Y821813D01*
X424119Y821780D01*
X424327Y821738D01*
X424427Y821713D01*
X424511Y821680D01*
X424519D01*
X424527Y821672D01*
X424552Y821663D01*
X424586Y821647D01*
X424669Y821605D01*
X424769Y821538D01*
X424885Y821455D01*
X425002Y821347D01*
X425119Y821214D01*
X425227Y821064D01*
Y821055D01*
X425235Y821047D01*
X425252Y821022D01*
X425269Y820989D01*
X425310Y820897D01*
X425360Y820780D01*
X425410Y820639D01*
X425452Y820472D01*
X425485Y820289D01*
X425494Y820097D01*
Y820089D01*
Y820064D01*
Y820031D01*
X425485Y819980D01*
X425477Y819922D01*
X425469Y819855D01*
X425435Y819697D01*
X425385Y819514D01*
X425310Y819322D01*
X425260Y819231D01*
X425202Y819131D01*
X425127Y819039D01*
X425052Y818947D01*
X425044Y818939D01*
X425036Y818931D01*
X425002Y818906D01*
X424969Y818872D01*
X424919Y818839D01*
X424860Y818797D01*
X424794Y818747D01*
X424719Y818698D01*
X424627Y818648D01*
X424527Y818597D01*
X424411Y818548D01*
X424286Y818497D01*
X424152Y818456D01*
X424011Y818414D01*
X423852Y818381D01*
X423686Y818356D01*
X423703Y818348D01*
X423744Y818331D01*
X423802Y818298D01*
X423877Y818256D01*
X424044Y818148D01*
X424119Y818089D01*
X424194Y818031D01*
X424202D01*
X424211Y818014D01*
X424261Y817973D01*
X424327Y817898D01*
X424427Y817798D01*
X424536Y817681D01*
X424652Y817531D01*
X424777Y817365D01*
X424902Y817181D01*
X426010Y815448D01*
X424944D01*
X424102Y816773D01*
Y816781D01*
X424086Y816798D01*
X424069Y816831D01*
X424044Y816865D01*
X424011Y816915D01*
X423969Y816973D01*
X423886Y817098D01*
X423786Y817240D01*
X423686Y817381D01*
X423586Y817523D01*
X423486Y817648D01*
X423478Y817664D01*
X423444Y817698D01*
X423403Y817756D01*
X423344Y817814D01*
X423278Y817889D01*
X423203Y817964D01*
X423128Y818023D01*
X423053Y818081D01*
X423044Y818089D01*
X423019Y818098D01*
X422986Y818123D01*
X422936Y818148D01*
X422878Y818181D01*
X422811Y818206D01*
X422669Y818256D01*
X422661D01*
X422644Y818264D01*
X422611D01*
X422561Y818273D01*
X422495Y818281D01*
X422411D01*
X422319Y818289D01*
X421220D01*
Y815448D01*
X420370D01*
Y821855D01*
X423353D01*
X423428Y821847D01*
D02*
G37*
G36*
X428735Y821872D02*
X428801Y821863D01*
X428885Y821855D01*
X428976Y821838D01*
X429076Y821822D01*
X429293Y821763D01*
X429401Y821722D01*
X429518Y821672D01*
X429626Y821613D01*
X429743Y821555D01*
X429843Y821472D01*
X429943Y821388D01*
X429951Y821380D01*
X429967Y821364D01*
X429992Y821339D01*
X430026Y821305D01*
X430059Y821255D01*
X430109Y821197D01*
X430151Y821130D01*
X430201Y821064D01*
X430293Y820889D01*
X430376Y820689D01*
X430409Y820572D01*
X430434Y820455D01*
X430451Y820330D01*
X430459Y820205D01*
Y820197D01*
Y820189D01*
Y820164D01*
Y820130D01*
X430451Y820047D01*
X430426Y819939D01*
X430401Y819814D01*
X430359Y819689D01*
X430301Y819556D01*
X430218Y819422D01*
X430209Y819406D01*
X430176Y819372D01*
X430117Y819314D01*
X430042Y819239D01*
X429943Y819156D01*
X429818Y819072D01*
X429676Y818989D01*
X429509Y818914D01*
X429518D01*
X429534Y818906D01*
X429568Y818897D01*
X429609Y818881D01*
X429659Y818856D01*
X429709Y818831D01*
X429843Y818764D01*
X429992Y818681D01*
X430143Y818572D01*
X430284Y818447D01*
X430409Y818298D01*
Y818289D01*
X430426Y818281D01*
X430434Y818256D01*
X430459Y818223D01*
X430484Y818181D01*
X430509Y818131D01*
X430567Y818014D01*
X430617Y817864D01*
X430667Y817689D01*
X430701Y817489D01*
X430717Y817273D01*
Y817264D01*
Y817240D01*
Y817198D01*
X430709Y817140D01*
X430701Y817065D01*
X430684Y816981D01*
X430667Y816898D01*
X430642Y816798D01*
X430617Y816690D01*
X430576Y816581D01*
X430526Y816465D01*
X430476Y816348D01*
X430401Y816231D01*
X430326Y816115D01*
X430234Y816006D01*
X430134Y815898D01*
X430126Y815890D01*
X430109Y815873D01*
X430076Y815848D01*
X430026Y815815D01*
X429967Y815765D01*
X429901Y815723D01*
X429818Y815673D01*
X429726Y815623D01*
X429618Y815565D01*
X429509Y815515D01*
X429384Y815473D01*
X429243Y815432D01*
X429101Y815390D01*
X428943Y815365D01*
X428784Y815348D01*
X428610Y815340D01*
X428518D01*
X428451Y815348D01*
X428368Y815357D01*
X428276Y815373D01*
X428176Y815390D01*
X428060Y815407D01*
X427818Y815473D01*
X427693Y815523D01*
X427560Y815573D01*
X427435Y815640D01*
X427310Y815715D01*
X427193Y815798D01*
X427077Y815898D01*
X427068Y815907D01*
X427052Y815923D01*
X427027Y815956D01*
X426985Y815998D01*
X426943Y816057D01*
X426893Y816123D01*
X426843Y816198D01*
X426793Y816281D01*
X426735Y816381D01*
X426685Y816481D01*
X426635Y816598D01*
X426593Y816723D01*
X426552Y816856D01*
X426527Y816998D01*
X426510Y817148D01*
X426502Y817298D01*
Y817306D01*
Y817323D01*
Y817356D01*
X426510Y817406D01*
Y817456D01*
X426518Y817514D01*
X426543Y817664D01*
X426577Y817831D01*
X426635Y817998D01*
X426710Y818173D01*
X426818Y818339D01*
Y818348D01*
X426835Y818356D01*
X426877Y818406D01*
X426952Y818481D01*
X427052Y818572D01*
X427177Y818664D01*
X427335Y818764D01*
X427510Y818847D01*
X427718Y818914D01*
X427710D01*
X427693Y818922D01*
X427668Y818931D01*
X427635Y818947D01*
X427551Y818989D01*
X427443Y819047D01*
X427327Y819122D01*
X427202Y819206D01*
X427093Y819314D01*
X426993Y819431D01*
X426985Y819447D01*
X426960Y819489D01*
X426918Y819564D01*
X426877Y819656D01*
X426835Y819772D01*
X426793Y819905D01*
X426768Y820055D01*
X426760Y820222D01*
Y820230D01*
Y820255D01*
Y820289D01*
X426768Y820339D01*
X426777Y820397D01*
X426785Y820472D01*
X426827Y820630D01*
X426885Y820814D01*
X426927Y820914D01*
X426968Y821013D01*
X427027Y821114D01*
X427093Y821214D01*
X427168Y821305D01*
X427260Y821397D01*
X427268Y821405D01*
X427285Y821422D01*
X427310Y821438D01*
X427351Y821472D01*
X427402Y821505D01*
X427460Y821547D01*
X427535Y821597D01*
X427618Y821638D01*
X427701Y821680D01*
X427801Y821730D01*
X427918Y821772D01*
X428035Y821805D01*
X428160Y821838D01*
X428293Y821863D01*
X428443Y821872D01*
X428593Y821880D01*
X428676D01*
X428735Y821872D01*
D02*
G37*
G36*
X615950Y608282D02*
X612982D01*
X612908Y608291D01*
X612825D01*
X612631Y608301D01*
X612427Y608328D01*
X612206Y608356D01*
X612002Y608402D01*
X611900Y608430D01*
X611817Y608458D01*
X611808D01*
X611799Y608467D01*
X611743Y608495D01*
X611660Y608532D01*
X611558Y608596D01*
X611447Y608680D01*
X611327Y608791D01*
X611216Y608920D01*
X611105Y609068D01*
Y609077D01*
X611096Y609086D01*
X611059Y609142D01*
X611022Y609234D01*
X610967Y609355D01*
X610920Y609493D01*
X610874Y609660D01*
X610846Y609835D01*
X610837Y610029D01*
Y610039D01*
Y610057D01*
Y610094D01*
X610846Y610140D01*
Y610205D01*
X610856Y610270D01*
X610893Y610427D01*
X610948Y610612D01*
X611022Y610806D01*
X611133Y611000D01*
X611207Y611093D01*
X611281Y611185D01*
X611290Y611194D01*
X611300Y611204D01*
X611327Y611231D01*
X611364Y611259D01*
X611410Y611296D01*
X611466Y611333D01*
X611540Y611379D01*
X611614Y611435D01*
X611706Y611481D01*
X611808Y611527D01*
X611919Y611583D01*
X612039Y611629D01*
X612178Y611666D01*
X612317Y611712D01*
X612474Y611740D01*
X612640Y611768D01*
X612622Y611777D01*
X612585Y611795D01*
X612529Y611832D01*
X612455Y611869D01*
X612289Y611971D01*
X612206Y612036D01*
X612132Y612091D01*
X612113Y612110D01*
X612067Y612156D01*
X611993Y612230D01*
X611900Y612322D01*
X611799Y612452D01*
X611679Y612591D01*
X611558Y612757D01*
X611429Y612942D01*
X610329Y614680D01*
X611383D01*
X612224Y613349D01*
Y613340D01*
X612243Y613321D01*
X612261Y613293D01*
X612289Y613256D01*
X612354Y613155D01*
X612437Y613025D01*
X612538Y612886D01*
X612640Y612738D01*
X612742Y612600D01*
X612834Y612470D01*
X612844Y612461D01*
X612871Y612424D01*
X612918Y612369D01*
X612982Y612304D01*
X613121Y612165D01*
X613195Y612101D01*
X613269Y612045D01*
X613278Y612036D01*
X613297Y612027D01*
X613334Y612008D01*
X613389Y611980D01*
X613445Y611953D01*
X613509Y611925D01*
X613657Y611879D01*
X613666D01*
X613685Y611869D01*
X613722D01*
X613768Y611860D01*
X613833Y611851D01*
X613907D01*
X614008Y611842D01*
X615099D01*
Y614680D01*
X615950D01*
Y608282D01*
D02*
G37*
G36*
X607657Y609678D02*
X607666Y609688D01*
X607712Y609724D01*
X607768Y609780D01*
X607860Y609845D01*
X607962Y609928D01*
X608091Y610020D01*
X608239Y610122D01*
X608406Y610224D01*
X608415D01*
X608424Y610233D01*
X608480Y610270D01*
X608572Y610316D01*
X608683Y610372D01*
X608812Y610436D01*
X608951Y610501D01*
X609090Y610566D01*
X609229Y610621D01*
Y609863D01*
X609219D01*
X609201Y609845D01*
X609164Y609835D01*
X609118Y609808D01*
X609062Y609780D01*
X608997Y609743D01*
X608840Y609650D01*
X608655Y609549D01*
X608470Y609419D01*
X608276Y609271D01*
X608082Y609114D01*
X608073Y609105D01*
X608064Y609096D01*
X608036Y609068D01*
X607999Y609040D01*
X607916Y608948D01*
X607805Y608837D01*
X607694Y608707D01*
X607574Y608559D01*
X607472Y608412D01*
X607379Y608254D01*
X606871D01*
Y614680D01*
X607657D01*
Y609678D01*
D02*
G37*
G36*
X604966Y614671D02*
Y614634D01*
Y614578D01*
X604957Y614504D01*
X604948Y614421D01*
X604929Y614329D01*
X604911Y614236D01*
X604874Y614135D01*
Y614125D01*
X604865Y614116D01*
X604846Y614061D01*
X604809Y613977D01*
X604754Y613867D01*
X604680Y613737D01*
X604587Y613589D01*
X604486Y613441D01*
X604356Y613284D01*
Y613275D01*
X604338Y613265D01*
X604291Y613210D01*
X604208Y613127D01*
X604088Y613007D01*
X603949Y612868D01*
X603774Y612701D01*
X603561Y612517D01*
X603330Y612322D01*
X603321Y612313D01*
X603284Y612285D01*
X603228Y612239D01*
X603163Y612184D01*
X603080Y612110D01*
X602979Y612027D01*
X602877Y611934D01*
X602757Y611832D01*
X602525Y611610D01*
X602294Y611389D01*
X602183Y611278D01*
X602082Y611167D01*
X601989Y611065D01*
X601915Y610963D01*
Y610954D01*
X601897Y610945D01*
X601878Y610917D01*
X601860Y610880D01*
X601795Y610778D01*
X601721Y610658D01*
X601656Y610510D01*
X601592Y610353D01*
X601555Y610177D01*
X601536Y610011D01*
Y610002D01*
Y609993D01*
X601545Y609937D01*
X601555Y609845D01*
X601582Y609743D01*
X601619Y609613D01*
X601684Y609484D01*
X601767Y609355D01*
X601878Y609225D01*
X601897Y609207D01*
X601943Y609170D01*
X602008Y609123D01*
X602109Y609059D01*
X602239Y609003D01*
X602387Y608948D01*
X602562Y608911D01*
X602757Y608902D01*
X602812D01*
X602849Y608911D01*
X602960Y608920D01*
X603089Y608948D01*
X603228Y608985D01*
X603385Y609049D01*
X603533Y609133D01*
X603672Y609244D01*
X603690Y609262D01*
X603727Y609308D01*
X603783Y609382D01*
X603838Y609493D01*
X603903Y609623D01*
X603959Y609789D01*
X603996Y609974D01*
X604014Y610187D01*
X604818Y610103D01*
Y610094D01*
X604809Y610066D01*
Y610020D01*
X604800Y609956D01*
X604781Y609882D01*
X604763Y609798D01*
X604735Y609697D01*
X604707Y609595D01*
X604633Y609373D01*
X604523Y609151D01*
X604458Y609040D01*
X604375Y608929D01*
X604291Y608828D01*
X604199Y608735D01*
X604190Y608726D01*
X604171Y608717D01*
X604143Y608689D01*
X604097Y608661D01*
X604042Y608624D01*
X603977Y608587D01*
X603903Y608541D01*
X603811Y608495D01*
X603709Y608448D01*
X603598Y608402D01*
X603478Y608365D01*
X603348Y608328D01*
X603210Y608301D01*
X603062Y608273D01*
X602905Y608264D01*
X602738Y608254D01*
X602646D01*
X602581Y608264D01*
X602507Y608273D01*
X602415Y608282D01*
X602313Y608301D01*
X602211Y608319D01*
X601971Y608384D01*
X601730Y608476D01*
X601610Y608532D01*
X601490Y608596D01*
X601379Y608680D01*
X601277Y608772D01*
X601268Y608781D01*
X601250Y608791D01*
X601231Y608828D01*
X601194Y608865D01*
X601148Y608911D01*
X601102Y608975D01*
X601055Y609040D01*
X601000Y609123D01*
X600908Y609299D01*
X600815Y609521D01*
X600778Y609632D01*
X600760Y609761D01*
X600741Y609891D01*
X600732Y610029D01*
Y610048D01*
Y610094D01*
X600741Y610168D01*
X600750Y610270D01*
X600769Y610381D01*
X600806Y610510D01*
X600843Y610649D01*
X600898Y610788D01*
X600908Y610806D01*
X600926Y610852D01*
X600963Y610926D01*
X601018Y611028D01*
X601092Y611139D01*
X601185Y611278D01*
X601296Y611416D01*
X601425Y611574D01*
X601444Y611592D01*
X601490Y611647D01*
X601536Y611694D01*
X601582Y611740D01*
X601638Y611795D01*
X601712Y611869D01*
X601786Y611943D01*
X601878Y612027D01*
X601971Y612119D01*
X602082Y612221D01*
X602202Y612322D01*
X602331Y612443D01*
X602479Y612563D01*
X602627Y612692D01*
X602636Y612701D01*
X602655Y612720D01*
X602692Y612748D01*
X602738Y612785D01*
X602794Y612840D01*
X602858Y612896D01*
X603006Y613016D01*
X603163Y613155D01*
X603311Y613293D01*
X603441Y613413D01*
X603496Y613460D01*
X603543Y613506D01*
X603552Y613515D01*
X603579Y613543D01*
X603616Y613580D01*
X603663Y613635D01*
X603709Y613700D01*
X603764Y613765D01*
X603875Y613922D01*
X600723D01*
Y614680D01*
X604966D01*
Y614671D01*
D02*
G37*
G36*
X762189Y716391D02*
X761403D01*
Y721393D01*
X761394Y721383D01*
X761348Y721347D01*
X761292Y721291D01*
X761200Y721226D01*
X761098Y721143D01*
X760969Y721051D01*
X760821Y720949D01*
X760654Y720847D01*
X760645D01*
X760636Y720838D01*
X760580Y720801D01*
X760488Y720755D01*
X760377Y720699D01*
X760247Y720635D01*
X760109Y720570D01*
X759970Y720505D01*
X759831Y720450D01*
Y721208D01*
X759841D01*
X759859Y721226D01*
X759896Y721236D01*
X759942Y721263D01*
X759998Y721291D01*
X760063Y721328D01*
X760220Y721420D01*
X760405Y721522D01*
X760590Y721652D01*
X760784Y721799D01*
X760978Y721957D01*
X760987Y721966D01*
X760996Y721975D01*
X761024Y722003D01*
X761061Y722031D01*
X761144Y722123D01*
X761255Y722234D01*
X761366Y722364D01*
X761486Y722511D01*
X761588Y722659D01*
X761681Y722816D01*
X762189D01*
Y716391D01*
D02*
G37*
G36*
X756152Y722779D02*
X756235D01*
X756429Y722770D01*
X756632Y722742D01*
X756854Y722715D01*
X757058Y722669D01*
X757159Y722641D01*
X757243Y722613D01*
X757252D01*
X757261Y722604D01*
X757317Y722576D01*
X757400Y722539D01*
X757502Y722474D01*
X757613Y722391D01*
X757733Y722280D01*
X757844Y722151D01*
X757955Y722003D01*
Y721994D01*
X757964Y721984D01*
X758001Y721929D01*
X758038Y721836D01*
X758093Y721716D01*
X758139Y721578D01*
X758186Y721411D01*
X758213Y721236D01*
X758223Y721041D01*
Y721032D01*
Y721014D01*
Y720977D01*
X758213Y720930D01*
Y720866D01*
X758204Y720801D01*
X758167Y720644D01*
X758112Y720459D01*
X758038Y720265D01*
X757927Y720071D01*
X757853Y719978D01*
X757779Y719886D01*
X757770Y719876D01*
X757760Y719867D01*
X757733Y719839D01*
X757696Y719812D01*
X757650Y719775D01*
X757594Y719738D01*
X757520Y719691D01*
X757446Y719636D01*
X757354Y719590D01*
X757252Y719544D01*
X757141Y719488D01*
X757021Y719442D01*
X756882Y719405D01*
X756743Y719359D01*
X756586Y719331D01*
X756420Y719303D01*
X756438Y719294D01*
X756475Y719275D01*
X756531Y719239D01*
X756605Y719202D01*
X756771Y719100D01*
X756854Y719035D01*
X756928Y718980D01*
X756947Y718961D01*
X756993Y718915D01*
X757067Y718841D01*
X757159Y718748D01*
X757261Y718619D01*
X757381Y718480D01*
X757502Y718314D01*
X757631Y718129D01*
X758731Y716391D01*
X757677D01*
X756836Y717722D01*
Y717731D01*
X756817Y717750D01*
X756799Y717778D01*
X756771Y717815D01*
X756706Y717916D01*
X756623Y718046D01*
X756522Y718185D01*
X756420Y718332D01*
X756318Y718471D01*
X756226Y718600D01*
X756216Y718610D01*
X756189Y718647D01*
X756142Y718702D01*
X756078Y718767D01*
X755939Y718906D01*
X755865Y718970D01*
X755791Y719026D01*
X755782Y719035D01*
X755763Y719044D01*
X755726Y719063D01*
X755671Y719090D01*
X755615Y719118D01*
X755551Y719146D01*
X755403Y719192D01*
X755394D01*
X755375Y719202D01*
X755338D01*
X755292Y719211D01*
X755227Y719220D01*
X755153D01*
X755051Y719229D01*
X753960D01*
Y716391D01*
X753110D01*
Y722789D01*
X756078D01*
X756152Y722779D01*
D02*
G37*
G36*
X766479Y722807D02*
X766599Y722789D01*
X766738Y722761D01*
X766886Y722724D01*
X767043Y722678D01*
X767191Y722604D01*
X767200D01*
X767209Y722595D01*
X767256Y722567D01*
X767330Y722521D01*
X767422Y722456D01*
X767524Y722364D01*
X767635Y722262D01*
X767736Y722142D01*
X767838Y722003D01*
X767847Y721984D01*
X767884Y721938D01*
X767921Y721855D01*
X767986Y721735D01*
X768042Y721596D01*
X768115Y721439D01*
X768180Y721254D01*
X768236Y721051D01*
Y721041D01*
X768245Y721023D01*
X768254Y720995D01*
X768263Y720949D01*
X768273Y720893D01*
X768282Y720829D01*
X768300Y720745D01*
X768310Y720653D01*
X768328Y720551D01*
X768337Y720440D01*
X768347Y720311D01*
X768365Y720182D01*
X768374Y720034D01*
Y719886D01*
X768384Y719719D01*
Y719544D01*
Y719534D01*
Y719497D01*
Y719433D01*
Y719359D01*
X768374Y719257D01*
Y719146D01*
X768365Y719026D01*
X768356Y718896D01*
X768328Y718600D01*
X768282Y718295D01*
X768226Y718000D01*
X768189Y717861D01*
X768143Y717722D01*
Y717713D01*
X768134Y717694D01*
X768115Y717657D01*
X768097Y717611D01*
X768079Y717546D01*
X768042Y717482D01*
X767968Y717325D01*
X767875Y717158D01*
X767755Y716973D01*
X767616Y716807D01*
X767450Y716650D01*
X767441D01*
X767431Y716631D01*
X767404Y716613D01*
X767367Y716594D01*
X767320Y716566D01*
X767274Y716529D01*
X767135Y716465D01*
X766969Y716400D01*
X766775Y716335D01*
X766544Y716298D01*
X766294Y716280D01*
X766202D01*
X766137Y716289D01*
X766063Y716298D01*
X765971Y716317D01*
X765869Y716335D01*
X765758Y716363D01*
X765647Y716400D01*
X765527Y716437D01*
X765406Y716492D01*
X765286Y716557D01*
X765166Y716631D01*
X765046Y716724D01*
X764935Y716825D01*
X764833Y716936D01*
X764824Y716946D01*
X764806Y716973D01*
X764778Y717020D01*
X764732Y717094D01*
X764685Y717177D01*
X764639Y717288D01*
X764574Y717417D01*
X764519Y717565D01*
X764464Y717731D01*
X764408Y717926D01*
X764352Y718138D01*
X764306Y718379D01*
X764260Y718637D01*
X764232Y718915D01*
X764214Y719220D01*
X764205Y719544D01*
Y719553D01*
Y719590D01*
Y719654D01*
Y719728D01*
X764214Y719830D01*
Y719941D01*
X764223Y720061D01*
X764232Y720200D01*
X764260Y720487D01*
X764306Y720792D01*
X764362Y721097D01*
X764399Y721236D01*
X764436Y721374D01*
Y721383D01*
X764445Y721402D01*
X764464Y721439D01*
X764482Y721485D01*
X764501Y721550D01*
X764537Y721615D01*
X764611Y721772D01*
X764704Y721938D01*
X764824Y722114D01*
X764963Y722290D01*
X765129Y722437D01*
X765138D01*
X765148Y722456D01*
X765175Y722474D01*
X765212Y722493D01*
X765259Y722530D01*
X765314Y722558D01*
X765453Y722632D01*
X765619Y722696D01*
X765813Y722761D01*
X766044Y722798D01*
X766294Y722816D01*
X766377D01*
X766479Y722807D01*
D02*
G37*
G36*
X558148Y720267D02*
X558194D01*
X558259Y720258D01*
X558416Y720230D01*
X558591Y720193D01*
X558786Y720129D01*
X558980Y720045D01*
X559174Y719934D01*
X559183D01*
X559193Y719916D01*
X559220Y719897D01*
X559257Y719870D01*
X559350Y719796D01*
X559470Y719694D01*
X559590Y719555D01*
X559729Y719389D01*
X559849Y719195D01*
X559960Y718973D01*
Y718964D01*
X559969Y718945D01*
X559988Y718908D01*
X560006Y718862D01*
X560025Y718797D01*
X560052Y718714D01*
X560071Y718622D01*
X560098Y718520D01*
X560126Y718400D01*
X560154Y718261D01*
X560173Y718113D01*
X560191Y717956D01*
X560210Y717780D01*
X560228Y717595D01*
X560237Y717392D01*
Y717179D01*
Y717170D01*
Y717124D01*
Y717059D01*
Y716976D01*
X560228Y716874D01*
Y716754D01*
X560219Y716615D01*
X560200Y716477D01*
X560173Y716162D01*
X560126Y715829D01*
X560061Y715515D01*
X560015Y715358D01*
X559969Y715219D01*
Y715210D01*
X559960Y715191D01*
X559941Y715154D01*
X559923Y715099D01*
X559895Y715043D01*
X559858Y714969D01*
X559766Y714812D01*
X559655Y714637D01*
X559525Y714452D01*
X559359Y714276D01*
X559174Y714119D01*
X559165D01*
X559146Y714100D01*
X559118Y714082D01*
X559081Y714063D01*
X559026Y714036D01*
X558971Y713999D01*
X558897Y713962D01*
X558823Y713934D01*
X558647Y713860D01*
X558434Y713795D01*
X558203Y713758D01*
X557944Y713740D01*
X557870D01*
X557824Y713749D01*
X557759D01*
X557685Y713758D01*
X557510Y713795D01*
X557316Y713842D01*
X557112Y713915D01*
X556909Y714017D01*
X556807Y714082D01*
X556715Y714156D01*
X556705Y714165D01*
X556696Y714174D01*
X556668Y714202D01*
X556641Y714230D01*
X556604Y714276D01*
X556558Y714332D01*
X556465Y714461D01*
X556372Y714628D01*
X556280Y714831D01*
X556206Y715062D01*
X556151Y715330D01*
X556909Y715395D01*
Y715386D01*
X556918Y715367D01*
Y715349D01*
X556927Y715312D01*
X556955Y715210D01*
X556992Y715099D01*
X557038Y714969D01*
X557103Y714840D01*
X557177Y714720D01*
X557269Y714618D01*
X557279Y714609D01*
X557316Y714581D01*
X557380Y714544D01*
X557454Y714507D01*
X557556Y714461D01*
X557676Y714424D01*
X557815Y714396D01*
X557963Y714387D01*
X558027D01*
X558092Y714396D01*
X558175Y714406D01*
X558277Y714424D01*
X558379Y714452D01*
X558490Y714489D01*
X558591Y714544D01*
X558601Y714554D01*
X558638Y714572D01*
X558693Y714609D01*
X558749Y714664D01*
X558823Y714729D01*
X558897Y714803D01*
X558971Y714886D01*
X559044Y714988D01*
X559054Y714997D01*
X559072Y715043D01*
X559109Y715108D01*
X559146Y715191D01*
X559193Y715302D01*
X559239Y715432D01*
X559285Y715580D01*
X559331Y715746D01*
Y715755D01*
X559340Y715765D01*
Y715792D01*
X559350Y715829D01*
X559368Y715922D01*
X559396Y716042D01*
X559414Y716190D01*
X559433Y716347D01*
X559442Y716523D01*
X559451Y716708D01*
Y716717D01*
Y716745D01*
Y716791D01*
Y716865D01*
X559442Y716846D01*
X559405Y716800D01*
X559350Y716735D01*
X559285Y716643D01*
X559193Y716551D01*
X559081Y716449D01*
X558952Y716347D01*
X558804Y716255D01*
X558786Y716245D01*
X558730Y716218D01*
X558647Y716181D01*
X558545Y716144D01*
X558407Y716097D01*
X558259Y716060D01*
X558092Y716033D01*
X557917Y716023D01*
X557843D01*
X557787Y716033D01*
X557713Y716042D01*
X557639Y716051D01*
X557547Y716070D01*
X557454Y716097D01*
X557242Y716162D01*
X557131Y716208D01*
X557020Y716264D01*
X556899Y716329D01*
X556789Y716412D01*
X556678Y716495D01*
X556576Y716597D01*
X556567Y716606D01*
X556548Y716625D01*
X556530Y716652D01*
X556493Y716699D01*
X556446Y716763D01*
X556400Y716828D01*
X556354Y716911D01*
X556308Y717004D01*
X556252Y717105D01*
X556206Y717216D01*
X556160Y717346D01*
X556114Y717475D01*
X556077Y717623D01*
X556058Y717780D01*
X556040Y717937D01*
X556031Y718113D01*
Y718122D01*
Y718159D01*
Y718205D01*
X556040Y718270D01*
X556049Y718353D01*
X556058Y718455D01*
X556077Y718557D01*
X556104Y718677D01*
X556169Y718917D01*
X556215Y719047D01*
X556271Y719185D01*
X556336Y719315D01*
X556419Y719435D01*
X556502Y719565D01*
X556604Y719676D01*
X556613Y719685D01*
X556631Y719703D01*
X556659Y719731D01*
X556705Y719768D01*
X556761Y719814D01*
X556835Y719870D01*
X556909Y719916D01*
X557001Y719981D01*
X557094Y720036D01*
X557205Y720082D01*
X557454Y720184D01*
X557584Y720221D01*
X557732Y720249D01*
X557880Y720267D01*
X558037Y720276D01*
X558102D01*
X558148Y720267D01*
D02*
G37*
G36*
X552952Y720239D02*
X553035D01*
X553229Y720230D01*
X553432Y720202D01*
X553654Y720175D01*
X553858Y720129D01*
X553959Y720101D01*
X554043Y720073D01*
X554052D01*
X554061Y720064D01*
X554117Y720036D01*
X554200Y719999D01*
X554301Y719934D01*
X554412Y719851D01*
X554533Y719740D01*
X554644Y719611D01*
X554755Y719463D01*
Y719454D01*
X554764Y719444D01*
X554801Y719389D01*
X554838Y719296D01*
X554893Y719176D01*
X554939Y719038D01*
X554986Y718871D01*
X555013Y718696D01*
X555023Y718501D01*
Y718492D01*
Y718474D01*
Y718437D01*
X555013Y718390D01*
Y718326D01*
X555004Y718261D01*
X554967Y718104D01*
X554912Y717919D01*
X554838Y717725D01*
X554727Y717531D01*
X554653Y717438D01*
X554579Y717346D01*
X554570Y717336D01*
X554560Y717327D01*
X554533Y717299D01*
X554496Y717272D01*
X554450Y717235D01*
X554394Y717198D01*
X554320Y717151D01*
X554246Y717096D01*
X554154Y717050D01*
X554052Y717004D01*
X553941Y716948D01*
X553821Y716902D01*
X553682Y716865D01*
X553543Y716819D01*
X553386Y716791D01*
X553220Y716763D01*
X553238Y716754D01*
X553275Y716735D01*
X553331Y716699D01*
X553405Y716662D01*
X553571Y716560D01*
X553654Y716495D01*
X553728Y716440D01*
X553747Y716421D01*
X553793Y716375D01*
X553867Y716301D01*
X553959Y716208D01*
X554061Y716079D01*
X554181Y715940D01*
X554301Y715774D01*
X554431Y715589D01*
X555531Y713851D01*
X554477D01*
X553636Y715182D01*
Y715191D01*
X553617Y715210D01*
X553599Y715238D01*
X553571Y715275D01*
X553506Y715376D01*
X553423Y715506D01*
X553321Y715645D01*
X553220Y715792D01*
X553118Y715931D01*
X553026Y716060D01*
X553016Y716070D01*
X552989Y716107D01*
X552942Y716162D01*
X552878Y716227D01*
X552739Y716366D01*
X552665Y716430D01*
X552591Y716486D01*
X552582Y716495D01*
X552563Y716504D01*
X552526Y716523D01*
X552471Y716551D01*
X552415Y716578D01*
X552351Y716606D01*
X552203Y716652D01*
X552193D01*
X552175Y716662D01*
X552138D01*
X552092Y716671D01*
X552027Y716680D01*
X551953D01*
X551851Y716689D01*
X550760D01*
Y713851D01*
X549910D01*
Y720249D01*
X552878D01*
X552952Y720239D01*
D02*
G37*
G36*
X806965Y810409D02*
X807021D01*
X807169Y810381D01*
X807344Y810353D01*
X807529Y810307D01*
X807733Y810242D01*
X807927Y810150D01*
X807936D01*
X807945Y810141D01*
X807973Y810122D01*
X808010Y810104D01*
X808102Y810048D01*
X808223Y809965D01*
X808352Y809863D01*
X808482Y809743D01*
X808611Y809595D01*
X808722Y809438D01*
Y809429D01*
X808731Y809419D01*
X808750Y809392D01*
X808759Y809355D01*
X808805Y809262D01*
X808851Y809142D01*
X808907Y808985D01*
X808944Y808809D01*
X808981Y808615D01*
X808990Y808402D01*
Y808356D01*
X808981Y808310D01*
Y808236D01*
X808972Y808153D01*
X808953Y808060D01*
X808925Y807949D01*
X808898Y807838D01*
X808861Y807709D01*
X808814Y807580D01*
X808759Y807450D01*
X808685Y807311D01*
X808602Y807182D01*
X808509Y807053D01*
X808398Y806923D01*
X808269Y806803D01*
X808260Y806794D01*
X808232Y806775D01*
X808195Y806748D01*
X808130Y806711D01*
X808047Y806655D01*
X807955Y806609D01*
X807834Y806553D01*
X807705Y806498D01*
X807548Y806433D01*
X807372Y806378D01*
X807178Y806331D01*
X806965Y806285D01*
X806725Y806239D01*
X806466Y806211D01*
X806189Y806193D01*
X805893Y806183D01*
X805884D01*
X805874D01*
X805847D01*
X805810D01*
X805717Y806193D01*
X805588D01*
X805440Y806202D01*
X805264Y806220D01*
X805070Y806239D01*
X804857Y806267D01*
X804645Y806304D01*
X804414Y806350D01*
X804192Y806405D01*
X803970Y806470D01*
X803757Y806553D01*
X803554Y806646D01*
X803360Y806748D01*
X803193Y806868D01*
X803184Y806877D01*
X803165Y806895D01*
X803128Y806932D01*
X803073Y806979D01*
X803017Y807034D01*
X802962Y807108D01*
X802888Y807200D01*
X802823Y807293D01*
X802758Y807404D01*
X802685Y807524D01*
X802629Y807663D01*
X802564Y807802D01*
X802518Y807959D01*
X802481Y808125D01*
X802463Y808301D01*
X802453Y808486D01*
Y808560D01*
X802463Y808615D01*
Y808680D01*
X802472Y808754D01*
X802509Y808929D01*
X802555Y809124D01*
X802629Y809327D01*
X802740Y809530D01*
X802805Y809632D01*
X802879Y809725D01*
X802888Y809734D01*
X802897Y809743D01*
X802925Y809771D01*
X802953Y809799D01*
X802999Y809845D01*
X803054Y809882D01*
X803184Y809983D01*
X803350Y810085D01*
X803554Y810178D01*
X803785Y810261D01*
X804044Y810316D01*
X804108Y809530D01*
X804099D01*
X804090Y809521D01*
X804034Y809512D01*
X803951Y809484D01*
X803849Y809447D01*
X803739Y809410D01*
X803628Y809355D01*
X803526Y809290D01*
X803443Y809225D01*
X803424Y809207D01*
X803387Y809170D01*
X803332Y809105D01*
X803267Y809013D01*
X803212Y808892D01*
X803156Y808763D01*
X803119Y808606D01*
X803101Y808439D01*
Y808375D01*
X803110Y808301D01*
X803128Y808217D01*
X803156Y808107D01*
X803193Y807996D01*
X803239Y807885D01*
X803313Y807774D01*
X803323Y807755D01*
X803360Y807709D01*
X803424Y807644D01*
X803517Y807561D01*
X803628Y807469D01*
X803757Y807367D01*
X803923Y807274D01*
X804108Y807182D01*
X804118D01*
X804136Y807173D01*
X804164Y807163D01*
X804201Y807145D01*
X804256Y807136D01*
X804321Y807117D01*
X804395Y807099D01*
X804488Y807080D01*
X804589Y807053D01*
X804700Y807034D01*
X804820Y807016D01*
X804950Y807006D01*
X805098Y806988D01*
X805246Y806979D01*
X805412Y806969D01*
X805578D01*
X805569Y806979D01*
X805514Y807016D01*
X805440Y807080D01*
X805347Y807163D01*
X805236Y807256D01*
X805135Y807376D01*
X805033Y807506D01*
X804940Y807654D01*
Y807663D01*
X804931Y807672D01*
X804903Y807728D01*
X804876Y807811D01*
X804830Y807922D01*
X804793Y808051D01*
X804765Y808199D01*
X804737Y808356D01*
X804728Y808523D01*
Y808597D01*
X804737Y808652D01*
X804746Y808726D01*
X804756Y808800D01*
X804774Y808892D01*
X804802Y808985D01*
X804866Y809197D01*
X804913Y809308D01*
X804977Y809419D01*
X805042Y809530D01*
X805116Y809651D01*
X805209Y809762D01*
X805310Y809863D01*
X805320Y809873D01*
X805338Y809891D01*
X805366Y809919D01*
X805412Y809946D01*
X805477Y809993D01*
X805542Y810039D01*
X805625Y810085D01*
X805717Y810141D01*
X805819Y810196D01*
X805930Y810242D01*
X806059Y810288D01*
X806189Y810335D01*
X806327Y810362D01*
X806485Y810390D01*
X806642Y810409D01*
X806808Y810418D01*
X806817D01*
X806836D01*
X806864D01*
X806910D01*
X806965Y810409D01*
D02*
G37*
G36*
X808879Y804667D02*
X807548Y803826D01*
X807539D01*
X807520Y803807D01*
X807492Y803789D01*
X807455Y803761D01*
X807354Y803696D01*
X807224Y803613D01*
X807085Y803512D01*
X806938Y803410D01*
X806799Y803308D01*
X806669Y803216D01*
X806660Y803206D01*
X806623Y803179D01*
X806568Y803132D01*
X806503Y803068D01*
X806364Y802929D01*
X806300Y802855D01*
X806244Y802781D01*
X806235Y802772D01*
X806226Y802753D01*
X806207Y802716D01*
X806179Y802661D01*
X806152Y802605D01*
X806124Y802541D01*
X806078Y802393D01*
Y802383D01*
X806068Y802365D01*
Y802328D01*
X806059Y802282D01*
X806050Y802217D01*
Y802143D01*
X806041Y802041D01*
Y800950D01*
X808879D01*
Y800100D01*
X802481D01*
Y803068D01*
X802490Y803142D01*
Y803225D01*
X802500Y803419D01*
X802527Y803622D01*
X802555Y803844D01*
X802601Y804048D01*
X802629Y804149D01*
X802657Y804233D01*
Y804242D01*
X802666Y804251D01*
X802694Y804307D01*
X802731Y804390D01*
X802795Y804492D01*
X802879Y804603D01*
X802990Y804723D01*
X803119Y804834D01*
X803267Y804945D01*
X803276D01*
X803286Y804954D01*
X803341Y804991D01*
X803434Y805028D01*
X803554Y805083D01*
X803692Y805129D01*
X803859Y805176D01*
X804034Y805203D01*
X804229Y805213D01*
X804238D01*
X804256D01*
X804293D01*
X804340Y805203D01*
X804404D01*
X804469Y805194D01*
X804626Y805157D01*
X804811Y805102D01*
X805005Y805028D01*
X805199Y804917D01*
X805292Y804843D01*
X805384Y804769D01*
X805394Y804760D01*
X805403Y804750D01*
X805431Y804723D01*
X805458Y804686D01*
X805495Y804640D01*
X805532Y804584D01*
X805578Y804510D01*
X805634Y804436D01*
X805680Y804344D01*
X805726Y804242D01*
X805782Y804131D01*
X805828Y804011D01*
X805865Y803872D01*
X805911Y803733D01*
X805939Y803576D01*
X805967Y803410D01*
X805976Y803428D01*
X805994Y803465D01*
X806031Y803521D01*
X806068Y803595D01*
X806170Y803761D01*
X806235Y803844D01*
X806290Y803918D01*
X806309Y803937D01*
X806355Y803983D01*
X806429Y804057D01*
X806522Y804149D01*
X806651Y804251D01*
X806790Y804371D01*
X806956Y804492D01*
X807141Y804621D01*
X808879Y805721D01*
Y804667D01*
D02*
G37*
G36*
X489364Y842205D02*
X489438Y842196D01*
X489521Y842187D01*
X489622Y842168D01*
X489724Y842150D01*
X489965Y842094D01*
X490214Y842001D01*
X490344Y841946D01*
X490464Y841872D01*
X490593Y841798D01*
X490713Y841706D01*
X490723Y841696D01*
X490750Y841678D01*
X490787Y841641D01*
X490834Y841595D01*
X490889Y841530D01*
X490963Y841456D01*
X491028Y841364D01*
X491102Y841262D01*
X491176Y841151D01*
X491240Y841021D01*
X491305Y840883D01*
X491370Y840735D01*
X491416Y840578D01*
X491453Y840402D01*
X491481Y840217D01*
X491490Y840023D01*
Y839940D01*
X491481Y839875D01*
X491472Y839801D01*
X491462Y839718D01*
X491453Y839616D01*
X491425Y839514D01*
X491370Y839283D01*
X491287Y839052D01*
X491231Y838932D01*
X491166Y838812D01*
X491092Y838701D01*
X491009Y838590D01*
X491000Y838581D01*
X490991Y838562D01*
X490954Y838544D01*
X490917Y838507D01*
X490871Y838460D01*
X490815Y838414D01*
X490741Y838359D01*
X490658Y838313D01*
X490575Y838257D01*
X490473Y838202D01*
X490251Y838100D01*
X489992Y838017D01*
X489854Y837989D01*
X489706Y837971D01*
X489641Y838793D01*
X489650D01*
X489669D01*
X489696Y838803D01*
X489743Y838812D01*
X489844Y838839D01*
X489983Y838876D01*
X490122Y838932D01*
X490279Y839006D01*
X490418Y839098D01*
X490547Y839209D01*
X490556Y839228D01*
X490593Y839265D01*
X490639Y839339D01*
X490695Y839441D01*
X490750Y839551D01*
X490797Y839690D01*
X490834Y839847D01*
X490843Y840023D01*
Y840079D01*
X490834Y840115D01*
X490824Y840226D01*
X490787Y840356D01*
X490741Y840513D01*
X490667Y840670D01*
X490556Y840837D01*
X490492Y840911D01*
X490418Y840984D01*
X490408Y840994D01*
X490399Y841003D01*
X490371Y841021D01*
X490344Y841049D01*
X490242Y841114D01*
X490112Y841188D01*
X489955Y841253D01*
X489761Y841317D01*
X489530Y841364D01*
X489410Y841382D01*
X489280D01*
X489271D01*
X489253D01*
X489216D01*
X489169Y841373D01*
X489114D01*
X489049Y841364D01*
X488901Y841336D01*
X488726Y841290D01*
X488550Y841225D01*
X488384Y841133D01*
X488226Y841003D01*
X488217D01*
X488208Y840984D01*
X488162Y840938D01*
X488097Y840855D01*
X488023Y840744D01*
X487958Y840596D01*
X487893Y840430D01*
X487847Y840236D01*
X487829Y840125D01*
Y839949D01*
X487838Y839875D01*
X487847Y839783D01*
X487875Y839672D01*
X487903Y839561D01*
X487949Y839441D01*
X488004Y839320D01*
X488014Y839311D01*
X488032Y839274D01*
X488078Y839219D01*
X488125Y839145D01*
X488189Y839071D01*
X488273Y838997D01*
X488356Y838913D01*
X488457Y838849D01*
X488356Y838109D01*
X485064Y838729D01*
Y841909D01*
X485813D01*
Y839348D01*
X487542Y839006D01*
X487533Y839015D01*
X487524Y839034D01*
X487505Y839061D01*
X487477Y839108D01*
X487450Y839163D01*
X487413Y839228D01*
X487339Y839376D01*
X487265Y839561D01*
X487200Y839764D01*
X487154Y839986D01*
X487135Y840097D01*
Y840300D01*
X487145Y840356D01*
X487154Y840430D01*
X487163Y840513D01*
X487182Y840605D01*
X487209Y840707D01*
X487274Y840929D01*
X487320Y841049D01*
X487385Y841169D01*
X487450Y841290D01*
X487524Y841410D01*
X487616Y841521D01*
X487718Y841632D01*
X487727Y841641D01*
X487746Y841659D01*
X487773Y841687D01*
X487820Y841724D01*
X487884Y841770D01*
X487949Y841817D01*
X488032Y841872D01*
X488125Y841928D01*
X488226Y841974D01*
X488337Y842029D01*
X488467Y842076D01*
X488596Y842122D01*
X488735Y842159D01*
X488892Y842187D01*
X489049Y842205D01*
X489216Y842214D01*
X489225D01*
X489253D01*
X489299D01*
X489364Y842205D01*
D02*
G37*
G36*
X491379Y836417D02*
X490048Y835576D01*
X490038D01*
X490020Y835557D01*
X489992Y835539D01*
X489955Y835511D01*
X489854Y835446D01*
X489724Y835363D01*
X489585Y835262D01*
X489438Y835160D01*
X489299Y835058D01*
X489169Y834966D01*
X489160Y834956D01*
X489123Y834929D01*
X489068Y834882D01*
X489003Y834818D01*
X488864Y834679D01*
X488800Y834605D01*
X488744Y834531D01*
X488735Y834522D01*
X488726Y834503D01*
X488707Y834466D01*
X488679Y834411D01*
X488652Y834355D01*
X488624Y834291D01*
X488578Y834143D01*
Y834134D01*
X488568Y834115D01*
Y834078D01*
X488559Y834032D01*
X488550Y833967D01*
Y833893D01*
X488541Y833791D01*
Y832701D01*
X491379D01*
Y831850D01*
X484981D01*
Y834818D01*
X484990Y834892D01*
Y834975D01*
X485000Y835169D01*
X485027Y835372D01*
X485055Y835594D01*
X485101Y835798D01*
X485129Y835899D01*
X485157Y835983D01*
Y835992D01*
X485166Y836001D01*
X485194Y836057D01*
X485231Y836140D01*
X485295Y836242D01*
X485379Y836352D01*
X485490Y836473D01*
X485619Y836584D01*
X485767Y836695D01*
X485776D01*
X485785Y836704D01*
X485841Y836741D01*
X485933Y836778D01*
X486054Y836833D01*
X486192Y836880D01*
X486359Y836926D01*
X486534Y836953D01*
X486729Y836963D01*
X486738D01*
X486756D01*
X486793D01*
X486839Y836953D01*
X486904D01*
X486969Y836944D01*
X487126Y836907D01*
X487311Y836852D01*
X487505Y836778D01*
X487699Y836667D01*
X487792Y836593D01*
X487884Y836519D01*
X487893Y836510D01*
X487903Y836500D01*
X487930Y836473D01*
X487958Y836436D01*
X487995Y836389D01*
X488032Y836334D01*
X488078Y836260D01*
X488134Y836186D01*
X488180Y836094D01*
X488226Y835992D01*
X488282Y835881D01*
X488328Y835761D01*
X488365Y835622D01*
X488411Y835483D01*
X488439Y835326D01*
X488467Y835160D01*
X488476Y835178D01*
X488494Y835215D01*
X488531Y835271D01*
X488568Y835345D01*
X488670Y835511D01*
X488735Y835594D01*
X488790Y835668D01*
X488809Y835687D01*
X488855Y835733D01*
X488929Y835807D01*
X489021Y835899D01*
X489151Y836001D01*
X489290Y836121D01*
X489456Y836242D01*
X489641Y836371D01*
X491379Y837471D01*
Y836417D01*
D02*
G37*
G36*
X603250Y841962D02*
X600282D01*
X600208Y841971D01*
X600125D01*
X599931Y841981D01*
X599728Y842008D01*
X599506Y842036D01*
X599302Y842082D01*
X599201Y842110D01*
X599117Y842138D01*
X599108D01*
X599099Y842147D01*
X599043Y842175D01*
X598960Y842212D01*
X598858Y842277D01*
X598747Y842360D01*
X598627Y842471D01*
X598516Y842600D01*
X598405Y842748D01*
Y842757D01*
X598396Y842766D01*
X598359Y842822D01*
X598322Y842914D01*
X598267Y843035D01*
X598220Y843173D01*
X598174Y843340D01*
X598147Y843515D01*
X598137Y843709D01*
Y843719D01*
Y843737D01*
Y843774D01*
X598147Y843820D01*
Y843885D01*
X598156Y843950D01*
X598193Y844107D01*
X598248Y844292D01*
X598322Y844486D01*
X598433Y844680D01*
X598507Y844773D01*
X598581Y844865D01*
X598590Y844874D01*
X598600Y844884D01*
X598627Y844911D01*
X598664Y844939D01*
X598711Y844976D01*
X598766Y845013D01*
X598840Y845059D01*
X598914Y845115D01*
X599006Y845161D01*
X599108Y845207D01*
X599219Y845263D01*
X599339Y845309D01*
X599478Y845346D01*
X599617Y845392D01*
X599774Y845420D01*
X599940Y845448D01*
X599922Y845457D01*
X599885Y845475D01*
X599829Y845512D01*
X599755Y845549D01*
X599589Y845651D01*
X599506Y845716D01*
X599432Y845771D01*
X599413Y845790D01*
X599367Y845836D01*
X599293Y845910D01*
X599201Y846002D01*
X599099Y846132D01*
X598979Y846271D01*
X598858Y846437D01*
X598729Y846622D01*
X597629Y848360D01*
X598683D01*
X599524Y847029D01*
Y847020D01*
X599543Y847001D01*
X599561Y846973D01*
X599589Y846936D01*
X599654Y846835D01*
X599737Y846705D01*
X599838Y846566D01*
X599940Y846419D01*
X600042Y846280D01*
X600134Y846150D01*
X600144Y846141D01*
X600171Y846104D01*
X600218Y846049D01*
X600282Y845984D01*
X600421Y845845D01*
X600495Y845781D01*
X600569Y845725D01*
X600578Y845716D01*
X600597Y845707D01*
X600634Y845688D01*
X600689Y845660D01*
X600745Y845633D01*
X600809Y845605D01*
X600957Y845559D01*
X600966D01*
X600985Y845549D01*
X601022D01*
X601068Y845540D01*
X601133Y845531D01*
X601207D01*
X601309Y845522D01*
X602399D01*
Y848360D01*
X603250D01*
Y841962D01*
D02*
G37*
G36*
X594615Y846825D02*
X597398D01*
Y846104D01*
X594467Y841962D01*
X593829D01*
Y846104D01*
X592960D01*
Y846825D01*
X593829D01*
Y848360D01*
X594615D01*
Y846825D01*
D02*
G37*
G36*
X545531Y852347D02*
X545651Y852329D01*
X545799Y852301D01*
X545965Y852255D01*
X546132Y852199D01*
X546298Y852125D01*
X546307D01*
X546317Y852116D01*
X546372Y852088D01*
X546455Y852033D01*
X546548Y851968D01*
X546659Y851876D01*
X546770Y851774D01*
X546881Y851654D01*
X546973Y851515D01*
X546982Y851497D01*
X547010Y851450D01*
X547047Y851367D01*
X547093Y851265D01*
X547140Y851145D01*
X547177Y851007D01*
X547204Y850850D01*
X547214Y850692D01*
Y850674D01*
Y850618D01*
X547204Y850544D01*
X547186Y850443D01*
X547158Y850322D01*
X547112Y850193D01*
X547056Y850064D01*
X546982Y849934D01*
X546973Y849916D01*
X546945Y849879D01*
X546890Y849814D01*
X546816Y849740D01*
X546724Y849657D01*
X546613Y849564D01*
X546483Y849481D01*
X546326Y849398D01*
X546335D01*
X546354Y849389D01*
X546381Y849379D01*
X546418Y849370D01*
X546520Y849333D01*
X546650Y849278D01*
X546798Y849204D01*
X546945Y849111D01*
X547084Y848991D01*
X547214Y848852D01*
X547223Y848834D01*
X547260Y848779D01*
X547315Y848686D01*
X547371Y848566D01*
X547426Y848418D01*
X547482Y848242D01*
X547519Y848039D01*
X547528Y847817D01*
Y847808D01*
Y847780D01*
Y847734D01*
X547519Y847678D01*
X547509Y847604D01*
X547491Y847521D01*
X547472Y847429D01*
X547454Y847327D01*
X547380Y847105D01*
X547325Y846985D01*
X547269Y846874D01*
X547195Y846754D01*
X547112Y846634D01*
X547020Y846513D01*
X546908Y846402D01*
X546899Y846393D01*
X546881Y846375D01*
X546844Y846347D01*
X546798Y846310D01*
X546742Y846264D01*
X546668Y846217D01*
X546585Y846162D01*
X546483Y846116D01*
X546381Y846060D01*
X546261Y846005D01*
X546141Y845959D01*
X546002Y845912D01*
X545854Y845875D01*
X545697Y845848D01*
X545540Y845829D01*
X545364Y845820D01*
X545281D01*
X545226Y845829D01*
X545152Y845838D01*
X545069Y845848D01*
X544976Y845866D01*
X544874Y845885D01*
X544653Y845940D01*
X544421Y846032D01*
X544301Y846088D01*
X544190Y846153D01*
X544079Y846236D01*
X543968Y846319D01*
X543959Y846328D01*
X543941Y846347D01*
X543913Y846375D01*
X543885Y846412D01*
X543839Y846458D01*
X543793Y846523D01*
X543737Y846587D01*
X543682Y846671D01*
X543626Y846763D01*
X543571Y846855D01*
X543469Y847077D01*
X543386Y847336D01*
X543358Y847475D01*
X543340Y847623D01*
X544126Y847725D01*
Y847715D01*
X544135Y847697D01*
X544144Y847660D01*
X544153Y847614D01*
X544163Y847558D01*
X544181Y847493D01*
X544227Y847355D01*
X544292Y847188D01*
X544375Y847031D01*
X544468Y846883D01*
X544579Y846754D01*
X544597Y846744D01*
X544634Y846708D01*
X544708Y846661D01*
X544800Y846615D01*
X544911Y846560D01*
X545050Y846513D01*
X545207Y846476D01*
X545374Y846467D01*
X545429D01*
X545466Y846476D01*
X545568Y846486D01*
X545697Y846513D01*
X545845Y846560D01*
X546002Y846624D01*
X546160Y846717D01*
X546307Y846846D01*
X546326Y846865D01*
X546372Y846920D01*
X546428Y847003D01*
X546502Y847114D01*
X546576Y847253D01*
X546631Y847410D01*
X546677Y847595D01*
X546696Y847798D01*
Y847808D01*
Y847826D01*
Y847854D01*
X546687Y847891D01*
X546677Y847993D01*
X546650Y848113D01*
X546613Y848261D01*
X546548Y848409D01*
X546455Y848557D01*
X546335Y848695D01*
X546317Y848714D01*
X546271Y848751D01*
X546197Y848806D01*
X546095Y848871D01*
X545965Y848936D01*
X545808Y848991D01*
X545633Y849028D01*
X545438Y849047D01*
X545355D01*
X545290Y849037D01*
X545207Y849028D01*
X545115Y849010D01*
X545004Y848991D01*
X544884Y848963D01*
X544976Y849657D01*
X545022D01*
X545059Y849648D01*
X545180D01*
X545281Y849666D01*
X545401Y849685D01*
X545540Y849712D01*
X545697Y849759D01*
X545845Y849823D01*
X546002Y849906D01*
X546012D01*
X546021Y849916D01*
X546067Y849953D01*
X546132Y850017D01*
X546206Y850101D01*
X546280Y850221D01*
X546344Y850359D01*
X546391Y850517D01*
X546409Y850609D01*
Y850711D01*
Y850720D01*
Y850729D01*
Y850785D01*
X546391Y850859D01*
X546372Y850960D01*
X546335Y851071D01*
X546289Y851192D01*
X546215Y851312D01*
X546113Y851423D01*
X546104Y851432D01*
X546058Y851469D01*
X545993Y851515D01*
X545910Y851571D01*
X545799Y851617D01*
X545670Y851663D01*
X545522Y851700D01*
X545355Y851709D01*
X545281D01*
X545198Y851691D01*
X545087Y851672D01*
X544967Y851635D01*
X544847Y851589D01*
X544717Y851515D01*
X544597Y851423D01*
X544588Y851413D01*
X544551Y851367D01*
X544495Y851302D01*
X544431Y851210D01*
X544366Y851090D01*
X544301Y850942D01*
X544246Y850766D01*
X544209Y850563D01*
X543423Y850702D01*
Y850711D01*
X543432Y850739D01*
X543441Y850776D01*
X543451Y850831D01*
X543469Y850896D01*
X543497Y850970D01*
X543552Y851145D01*
X543645Y851349D01*
X543756Y851552D01*
X543894Y851746D01*
X544070Y851922D01*
X544079Y851931D01*
X544098Y851941D01*
X544126Y851959D01*
X544163Y851987D01*
X544209Y852024D01*
X544273Y852061D01*
X544338Y852098D01*
X544421Y852144D01*
X544606Y852218D01*
X544819Y852292D01*
X545069Y852338D01*
X545198Y852356D01*
X545429D01*
X545531Y852347D01*
D02*
G37*
G36*
X540252Y852319D02*
X540335D01*
X540529Y852310D01*
X540732Y852282D01*
X540954Y852255D01*
X541158Y852209D01*
X541259Y852181D01*
X541343Y852153D01*
X541352D01*
X541361Y852144D01*
X541417Y852116D01*
X541500Y852079D01*
X541601Y852014D01*
X541712Y851931D01*
X541833Y851820D01*
X541944Y851691D01*
X542055Y851543D01*
Y851534D01*
X542064Y851524D01*
X542101Y851469D01*
X542138Y851376D01*
X542193Y851256D01*
X542239Y851118D01*
X542286Y850951D01*
X542313Y850776D01*
X542323Y850581D01*
Y850572D01*
Y850554D01*
Y850517D01*
X542313Y850470D01*
Y850406D01*
X542304Y850341D01*
X542267Y850184D01*
X542212Y849999D01*
X542138Y849805D01*
X542027Y849611D01*
X541953Y849518D01*
X541879Y849426D01*
X541870Y849416D01*
X541860Y849407D01*
X541833Y849379D01*
X541796Y849352D01*
X541749Y849315D01*
X541694Y849278D01*
X541620Y849231D01*
X541546Y849176D01*
X541454Y849130D01*
X541352Y849084D01*
X541241Y849028D01*
X541121Y848982D01*
X540982Y848945D01*
X540843Y848899D01*
X540686Y848871D01*
X540520Y848843D01*
X540538Y848834D01*
X540575Y848815D01*
X540631Y848779D01*
X540705Y848742D01*
X540871Y848640D01*
X540954Y848575D01*
X541028Y848520D01*
X541047Y848501D01*
X541093Y848455D01*
X541167Y848381D01*
X541259Y848288D01*
X541361Y848159D01*
X541481Y848020D01*
X541601Y847854D01*
X541731Y847669D01*
X542831Y845931D01*
X541777D01*
X540936Y847262D01*
Y847271D01*
X540917Y847290D01*
X540899Y847318D01*
X540871Y847355D01*
X540806Y847456D01*
X540723Y847586D01*
X540621Y847725D01*
X540520Y847872D01*
X540418Y848011D01*
X540326Y848140D01*
X540316Y848150D01*
X540289Y848187D01*
X540242Y848242D01*
X540178Y848307D01*
X540039Y848446D01*
X539965Y848510D01*
X539891Y848566D01*
X539882Y848575D01*
X539863Y848584D01*
X539826Y848603D01*
X539771Y848631D01*
X539715Y848658D01*
X539651Y848686D01*
X539503Y848732D01*
X539493D01*
X539475Y848742D01*
X539438D01*
X539392Y848751D01*
X539327Y848760D01*
X539253D01*
X539151Y848769D01*
X538060D01*
Y845931D01*
X537210D01*
Y852329D01*
X540178D01*
X540252Y852319D01*
D02*
G37*
G36*
X497888Y760302D02*
X497879Y760228D01*
Y760145D01*
X497869Y759951D01*
X497842Y759747D01*
X497814Y759526D01*
X497768Y759322D01*
X497740Y759221D01*
X497712Y759137D01*
Y759128D01*
X497703Y759119D01*
X497675Y759063D01*
X497638Y758980D01*
X497574Y758878D01*
X497490Y758767D01*
X497379Y758647D01*
X497250Y758536D01*
X497102Y758425D01*
X497093D01*
X497084Y758416D01*
X497028Y758379D01*
X496936Y758342D01*
X496815Y758287D01*
X496677Y758241D01*
X496510Y758194D01*
X496335Y758167D01*
X496140Y758157D01*
X496131D01*
X496113D01*
X496076D01*
X496030Y758167D01*
X495965D01*
X495900Y758176D01*
X495743Y758213D01*
X495558Y758268D01*
X495364Y758342D01*
X495170Y758453D01*
X495077Y758527D01*
X494985Y758601D01*
X494976Y758610D01*
X494966Y758620D01*
X494939Y758647D01*
X494911Y758684D01*
X494874Y758730D01*
X494837Y758786D01*
X494791Y758860D01*
X494735Y758934D01*
X494689Y759026D01*
X494643Y759128D01*
X494587Y759239D01*
X494541Y759359D01*
X494504Y759498D01*
X494458Y759637D01*
X494430Y759794D01*
X494402Y759960D01*
X494393Y759942D01*
X494375Y759905D01*
X494338Y759849D01*
X494300Y759775D01*
X494199Y759609D01*
X494134Y759526D01*
X494079Y759452D01*
X494060Y759433D01*
X494014Y759387D01*
X493940Y759313D01*
X493848Y759221D01*
X493718Y759119D01*
X493579Y758999D01*
X493413Y758878D01*
X493228Y758749D01*
X491490Y757649D01*
Y758703D01*
X492821Y759544D01*
X492831D01*
X492849Y759563D01*
X492877Y759581D01*
X492914Y759609D01*
X493015Y759673D01*
X493145Y759757D01*
X493284Y759858D01*
X493431Y759960D01*
X493570Y760062D01*
X493700Y760154D01*
X493709Y760164D01*
X493746Y760191D01*
X493801Y760238D01*
X493866Y760302D01*
X494005Y760441D01*
X494069Y760515D01*
X494125Y760589D01*
X494134Y760598D01*
X494143Y760617D01*
X494162Y760654D01*
X494190Y760709D01*
X494217Y760764D01*
X494245Y760829D01*
X494291Y760977D01*
Y760986D01*
X494300Y761005D01*
Y761042D01*
X494310Y761088D01*
X494319Y761153D01*
Y761227D01*
X494328Y761329D01*
Y762420D01*
X491490D01*
Y763270D01*
X497888D01*
Y760302D01*
D02*
G37*
G36*
X491665Y757251D02*
X491749Y757242D01*
X491841Y757224D01*
X491934Y757205D01*
X492035Y757168D01*
X492045D01*
X492054Y757159D01*
X492109Y757140D01*
X492192Y757103D01*
X492304Y757048D01*
X492433Y756974D01*
X492581Y756881D01*
X492729Y756780D01*
X492886Y756650D01*
X492895D01*
X492904Y756632D01*
X492960Y756585D01*
X493043Y756502D01*
X493163Y756382D01*
X493302Y756243D01*
X493468Y756068D01*
X493653Y755855D01*
X493848Y755624D01*
X493857Y755615D01*
X493885Y755578D01*
X493931Y755522D01*
X493986Y755458D01*
X494060Y755374D01*
X494143Y755273D01*
X494236Y755171D01*
X494338Y755051D01*
X494559Y754820D01*
X494781Y754588D01*
X494892Y754477D01*
X495003Y754376D01*
X495105Y754283D01*
X495207Y754209D01*
X495216D01*
X495225Y754191D01*
X495253Y754172D01*
X495290Y754154D01*
X495392Y754089D01*
X495512Y754015D01*
X495660Y753951D01*
X495817Y753886D01*
X495993Y753849D01*
X496159Y753830D01*
X496168D01*
X496177D01*
X496233Y753840D01*
X496325Y753849D01*
X496427Y753876D01*
X496557Y753913D01*
X496686Y753978D01*
X496815Y754062D01*
X496945Y754172D01*
X496963Y754191D01*
X497000Y754237D01*
X497047Y754302D01*
X497111Y754404D01*
X497167Y754533D01*
X497222Y754681D01*
X497259Y754857D01*
X497268Y755051D01*
Y755106D01*
X497259Y755143D01*
X497250Y755254D01*
X497222Y755384D01*
X497185Y755522D01*
X497120Y755679D01*
X497037Y755827D01*
X496926Y755966D01*
X496908Y755984D01*
X496862Y756021D01*
X496788Y756077D01*
X496677Y756133D01*
X496547Y756197D01*
X496381Y756253D01*
X496196Y756290D01*
X495983Y756308D01*
X496066Y757113D01*
X496076D01*
X496103Y757103D01*
X496150D01*
X496214Y757094D01*
X496288Y757076D01*
X496371Y757057D01*
X496473Y757029D01*
X496575Y757002D01*
X496797Y756928D01*
X497019Y756817D01*
X497130Y756752D01*
X497241Y756669D01*
X497342Y756585D01*
X497435Y756493D01*
X497444Y756484D01*
X497453Y756465D01*
X497481Y756438D01*
X497509Y756391D01*
X497546Y756336D01*
X497583Y756271D01*
X497629Y756197D01*
X497675Y756105D01*
X497721Y756003D01*
X497768Y755892D01*
X497805Y755772D01*
X497842Y755642D01*
X497869Y755504D01*
X497897Y755356D01*
X497906Y755199D01*
X497916Y755032D01*
Y754940D01*
X497906Y754875D01*
X497897Y754801D01*
X497888Y754709D01*
X497869Y754607D01*
X497851Y754505D01*
X497786Y754265D01*
X497694Y754025D01*
X497638Y753904D01*
X497574Y753784D01*
X497490Y753673D01*
X497398Y753571D01*
X497389Y753562D01*
X497379Y753544D01*
X497342Y753525D01*
X497305Y753488D01*
X497259Y753442D01*
X497194Y753396D01*
X497130Y753350D01*
X497047Y753294D01*
X496871Y753202D01*
X496649Y753109D01*
X496538Y753072D01*
X496409Y753054D01*
X496279Y753035D01*
X496140Y753026D01*
X496122D01*
X496076D01*
X496002Y753035D01*
X495900Y753044D01*
X495789Y753063D01*
X495660Y753100D01*
X495521Y753137D01*
X495382Y753192D01*
X495364Y753202D01*
X495318Y753220D01*
X495244Y753257D01*
X495142Y753313D01*
X495031Y753387D01*
X494892Y753479D01*
X494754Y753590D01*
X494596Y753719D01*
X494578Y753738D01*
X494522Y753784D01*
X494476Y753830D01*
X494430Y753876D01*
X494375Y753932D01*
X494300Y754006D01*
X494227Y754080D01*
X494143Y754172D01*
X494051Y754265D01*
X493949Y754376D01*
X493848Y754496D01*
X493727Y754625D01*
X493607Y754773D01*
X493478Y754921D01*
X493468Y754930D01*
X493450Y754949D01*
X493422Y754986D01*
X493385Y755032D01*
X493330Y755088D01*
X493274Y755152D01*
X493154Y755300D01*
X493015Y755458D01*
X492877Y755605D01*
X492757Y755735D01*
X492710Y755790D01*
X492664Y755837D01*
X492655Y755846D01*
X492627Y755874D01*
X492590Y755911D01*
X492535Y755957D01*
X492470Y756003D01*
X492405Y756059D01*
X492248Y756170D01*
Y753017D01*
X491490D01*
Y757260D01*
X491499D01*
X491536D01*
X491592D01*
X491665Y757251D01*
D02*
G37*
G36*
X557719Y759460D02*
X556933D01*
Y764462D01*
X556924Y764453D01*
X556878Y764416D01*
X556822Y764360D01*
X556730Y764295D01*
X556628Y764212D01*
X556499Y764120D01*
X556351Y764018D01*
X556184Y763916D01*
X556175D01*
X556166Y763907D01*
X556110Y763870D01*
X556018Y763824D01*
X555907Y763768D01*
X555778Y763704D01*
X555639Y763639D01*
X555500Y763574D01*
X555361Y763519D01*
Y764277D01*
X555371D01*
X555389Y764295D01*
X555426Y764305D01*
X555472Y764332D01*
X555528Y764360D01*
X555593Y764397D01*
X555750Y764490D01*
X555935Y764591D01*
X556120Y764721D01*
X556314Y764868D01*
X556508Y765026D01*
X556517Y765035D01*
X556526Y765044D01*
X556554Y765072D01*
X556591Y765100D01*
X556674Y765192D01*
X556785Y765303D01*
X556896Y765433D01*
X557016Y765581D01*
X557118Y765728D01*
X557211Y765886D01*
X557719D01*
Y759460D01*
D02*
G37*
G36*
X551682Y765849D02*
X551765D01*
X551959Y765839D01*
X552162Y765812D01*
X552384Y765784D01*
X552588Y765738D01*
X552689Y765710D01*
X552773Y765682D01*
X552782D01*
X552791Y765673D01*
X552847Y765645D01*
X552930Y765608D01*
X553032Y765544D01*
X553143Y765460D01*
X553263Y765349D01*
X553374Y765220D01*
X553485Y765072D01*
Y765063D01*
X553494Y765053D01*
X553531Y764998D01*
X553568Y764905D01*
X553623Y764785D01*
X553670Y764647D01*
X553716Y764480D01*
X553743Y764305D01*
X553753Y764110D01*
Y764101D01*
Y764083D01*
Y764046D01*
X553743Y763999D01*
Y763935D01*
X553734Y763870D01*
X553697Y763713D01*
X553642Y763528D01*
X553568Y763334D01*
X553457Y763140D01*
X553383Y763047D01*
X553309Y762955D01*
X553300Y762945D01*
X553290Y762936D01*
X553263Y762908D01*
X553226Y762881D01*
X553180Y762844D01*
X553124Y762807D01*
X553050Y762761D01*
X552976Y762705D01*
X552884Y762659D01*
X552782Y762613D01*
X552671Y762557D01*
X552551Y762511D01*
X552412Y762474D01*
X552273Y762428D01*
X552116Y762400D01*
X551950Y762372D01*
X551968Y762363D01*
X552005Y762345D01*
X552061Y762308D01*
X552135Y762271D01*
X552301Y762169D01*
X552384Y762104D01*
X552458Y762049D01*
X552477Y762030D01*
X552523Y761984D01*
X552597Y761910D01*
X552689Y761817D01*
X552791Y761688D01*
X552911Y761549D01*
X553032Y761383D01*
X553161Y761198D01*
X554261Y759460D01*
X553207D01*
X552366Y760791D01*
Y760800D01*
X552347Y760819D01*
X552329Y760847D01*
X552301Y760884D01*
X552236Y760985D01*
X552153Y761115D01*
X552052Y761254D01*
X551950Y761401D01*
X551848Y761540D01*
X551756Y761670D01*
X551746Y761679D01*
X551719Y761716D01*
X551672Y761771D01*
X551608Y761836D01*
X551469Y761975D01*
X551395Y762039D01*
X551321Y762095D01*
X551312Y762104D01*
X551293Y762113D01*
X551256Y762132D01*
X551201Y762160D01*
X551145Y762187D01*
X551081Y762215D01*
X550933Y762261D01*
X550924D01*
X550905Y762271D01*
X550868D01*
X550822Y762280D01*
X550757Y762289D01*
X550683D01*
X550581Y762298D01*
X549491D01*
Y759460D01*
X548640D01*
Y765858D01*
X551608D01*
X551682Y765849D01*
D02*
G37*
G36*
X544425Y619093D02*
X544499Y619084D01*
X544582Y619075D01*
X544674Y619056D01*
X544776Y619038D01*
X544998Y618982D01*
X545229Y618890D01*
X545349Y618834D01*
X545460Y618770D01*
X545571Y618686D01*
X545682Y618603D01*
X545691Y618594D01*
X545710Y618575D01*
X545738Y618548D01*
X545765Y618511D01*
X545812Y618465D01*
X545858Y618400D01*
X545913Y618335D01*
X545969Y618252D01*
X546024Y618159D01*
X546080Y618067D01*
X546181Y617845D01*
X546265Y617586D01*
X546292Y617448D01*
X546311Y617300D01*
X545525Y617198D01*
Y617207D01*
X545516Y617226D01*
X545507Y617263D01*
X545497Y617309D01*
X545488Y617364D01*
X545470Y617429D01*
X545423Y617568D01*
X545359Y617734D01*
X545275Y617891D01*
X545183Y618039D01*
X545072Y618169D01*
X545053Y618178D01*
X545017Y618215D01*
X544943Y618261D01*
X544850Y618307D01*
X544739Y618363D01*
X544600Y618409D01*
X544443Y618446D01*
X544277Y618455D01*
X544221D01*
X544184Y618446D01*
X544083Y618437D01*
X543953Y618409D01*
X543805Y618363D01*
X543648Y618298D01*
X543491Y618206D01*
X543343Y618076D01*
X543325Y618058D01*
X543278Y618002D01*
X543223Y617919D01*
X543149Y617808D01*
X543075Y617669D01*
X543019Y617512D01*
X542973Y617327D01*
X542955Y617124D01*
Y617115D01*
Y617096D01*
Y617068D01*
X542964Y617031D01*
X542973Y616930D01*
X543001Y616810D01*
X543038Y616662D01*
X543103Y616514D01*
X543195Y616366D01*
X543315Y616227D01*
X543334Y616209D01*
X543380Y616172D01*
X543454Y616116D01*
X543556Y616051D01*
X543685Y615987D01*
X543842Y615931D01*
X544018Y615894D01*
X544212Y615876D01*
X544295D01*
X544360Y615885D01*
X544443Y615894D01*
X544536Y615913D01*
X544647Y615931D01*
X544767Y615959D01*
X544674Y615266D01*
X544628D01*
X544591Y615275D01*
X544471D01*
X544369Y615256D01*
X544249Y615238D01*
X544110Y615210D01*
X543953Y615164D01*
X543805Y615099D01*
X543648Y615016D01*
X543639D01*
X543630Y615007D01*
X543583Y614970D01*
X543519Y614905D01*
X543445Y614822D01*
X543371Y614701D01*
X543306Y614563D01*
X543260Y614406D01*
X543241Y614313D01*
Y614212D01*
Y614202D01*
Y614193D01*
Y614138D01*
X543260Y614064D01*
X543278Y613962D01*
X543315Y613851D01*
X543362Y613731D01*
X543436Y613611D01*
X543537Y613500D01*
X543546Y613490D01*
X543593Y613453D01*
X543657Y613407D01*
X543741Y613352D01*
X543852Y613306D01*
X543981Y613259D01*
X544129Y613222D01*
X544295Y613213D01*
X544369D01*
X544453Y613232D01*
X544563Y613250D01*
X544684Y613287D01*
X544804Y613333D01*
X544933Y613407D01*
X545053Y613500D01*
X545063Y613509D01*
X545100Y613555D01*
X545155Y613620D01*
X545220Y613712D01*
X545285Y613833D01*
X545349Y613980D01*
X545405Y614156D01*
X545442Y614360D01*
X546228Y614221D01*
Y614212D01*
X546218Y614184D01*
X546209Y614147D01*
X546200Y614091D01*
X546181Y614027D01*
X546154Y613953D01*
X546098Y613777D01*
X546006Y613574D01*
X545895Y613370D01*
X545756Y613176D01*
X545580Y613000D01*
X545571Y612991D01*
X545553Y612982D01*
X545525Y612963D01*
X545488Y612936D01*
X545442Y612899D01*
X545377Y612862D01*
X545312Y612825D01*
X545229Y612779D01*
X545044Y612705D01*
X544832Y612631D01*
X544582Y612584D01*
X544453Y612566D01*
X544221D01*
X544120Y612575D01*
X543999Y612593D01*
X543852Y612621D01*
X543685Y612668D01*
X543519Y612723D01*
X543352Y612797D01*
X543343D01*
X543334Y612806D01*
X543278Y612834D01*
X543195Y612889D01*
X543103Y612954D01*
X542992Y613047D01*
X542881Y613148D01*
X542770Y613269D01*
X542677Y613407D01*
X542668Y613426D01*
X542640Y613472D01*
X542603Y613555D01*
X542557Y613657D01*
X542511Y613777D01*
X542474Y613916D01*
X542446Y614073D01*
X542437Y614230D01*
Y614249D01*
Y614304D01*
X542446Y614378D01*
X542465Y614480D01*
X542492Y614600D01*
X542539Y614729D01*
X542594Y614859D01*
X542668Y614988D01*
X542677Y615007D01*
X542705Y615044D01*
X542761Y615108D01*
X542835Y615182D01*
X542927Y615266D01*
X543038Y615358D01*
X543167Y615441D01*
X543325Y615524D01*
X543315D01*
X543297Y615534D01*
X543269Y615543D01*
X543232Y615552D01*
X543130Y615589D01*
X543001Y615645D01*
X542853Y615719D01*
X542705Y615811D01*
X542566Y615931D01*
X542437Y616070D01*
X542428Y616088D01*
X542391Y616144D01*
X542335Y616236D01*
X542280Y616357D01*
X542224Y616504D01*
X542169Y616680D01*
X542132Y616884D01*
X542123Y617105D01*
Y617115D01*
Y617142D01*
Y617189D01*
X542132Y617244D01*
X542141Y617318D01*
X542160Y617401D01*
X542178Y617494D01*
X542197Y617595D01*
X542271Y617817D01*
X542326Y617938D01*
X542382Y618048D01*
X542455Y618169D01*
X542539Y618289D01*
X542631Y618409D01*
X542742Y618520D01*
X542751Y618529D01*
X542770Y618548D01*
X542807Y618575D01*
X542853Y618612D01*
X542909Y618659D01*
X542982Y618705D01*
X543066Y618760D01*
X543167Y618807D01*
X543269Y618862D01*
X543389Y618918D01*
X543509Y618964D01*
X543648Y619010D01*
X543796Y619047D01*
X543953Y619075D01*
X544110Y619093D01*
X544286Y619102D01*
X544369D01*
X544425Y619093D01*
D02*
G37*
G36*
X552450Y612593D02*
X549991D01*
X549824Y612603D01*
X549639Y612612D01*
X549454Y612631D01*
X549269Y612658D01*
X549112Y612686D01*
X549103D01*
X549085Y612695D01*
X549057D01*
X549020Y612714D01*
X548918Y612742D01*
X548789Y612788D01*
X548641Y612852D01*
X548484Y612936D01*
X548326Y613028D01*
X548178Y613148D01*
X548169Y613158D01*
X548160Y613167D01*
X548132Y613195D01*
X548095Y613222D01*
X548003Y613315D01*
X547892Y613444D01*
X547772Y613601D01*
X547642Y613786D01*
X547522Y613999D01*
X547420Y614239D01*
Y614249D01*
X547411Y614267D01*
X547393Y614304D01*
X547383Y614360D01*
X547356Y614424D01*
X547337Y614498D01*
X547319Y614581D01*
X547291Y614683D01*
X547263Y614785D01*
X547245Y614905D01*
X547198Y615164D01*
X547171Y615450D01*
X547161Y615765D01*
Y615774D01*
Y615793D01*
Y615839D01*
Y615885D01*
X547171Y615950D01*
Y616024D01*
X547180Y616199D01*
X547208Y616403D01*
X547235Y616615D01*
X547282Y616837D01*
X547337Y617059D01*
Y617068D01*
X547346Y617087D01*
X547356Y617115D01*
X547365Y617152D01*
X547402Y617253D01*
X547457Y617383D01*
X547513Y617531D01*
X547587Y617679D01*
X547679Y617836D01*
X547772Y617984D01*
X547781Y618002D01*
X547818Y618048D01*
X547873Y618113D01*
X547947Y618196D01*
X548031Y618289D01*
X548132Y618381D01*
X548234Y618483D01*
X548354Y618566D01*
X548373Y618575D01*
X548410Y618603D01*
X548474Y618640D01*
X548567Y618686D01*
X548678Y618742D01*
X548807Y618788D01*
X548955Y618844D01*
X549122Y618890D01*
X549140D01*
X549168Y618899D01*
X549196Y618908D01*
X549288Y618918D01*
X549417Y618936D01*
X549565Y618955D01*
X549741Y618973D01*
X549935Y618982D01*
X550148Y618992D01*
X552450D01*
Y612593D01*
D02*
G37*
G36*
X671172Y676579D02*
X671163D01*
X671126D01*
X671071D01*
X670997Y676588D01*
X670914Y676597D01*
X670821Y676616D01*
X670729Y676634D01*
X670627Y676671D01*
X670618D01*
X670609Y676681D01*
X670553Y676699D01*
X670470Y676736D01*
X670359Y676792D01*
X670229Y676865D01*
X670081Y676958D01*
X669933Y677060D01*
X669776Y677189D01*
X669767D01*
X669758Y677208D01*
X669702Y677254D01*
X669619Y677337D01*
X669499Y677457D01*
X669360Y677596D01*
X669194Y677772D01*
X669009Y677984D01*
X668815Y678215D01*
X668806Y678225D01*
X668778Y678262D01*
X668732Y678317D01*
X668676Y678382D01*
X668602Y678465D01*
X668519Y678567D01*
X668427Y678668D01*
X668325Y678789D01*
X668103Y679020D01*
X667881Y679251D01*
X667770Y679362D01*
X667659Y679464D01*
X667557Y679556D01*
X667456Y679630D01*
X667447D01*
X667437Y679648D01*
X667410Y679667D01*
X667373Y679685D01*
X667271Y679750D01*
X667151Y679824D01*
X667003Y679889D01*
X666845Y679954D01*
X666670Y679990D01*
X666503Y680009D01*
X666494D01*
X666485D01*
X666430Y680000D01*
X666337Y679990D01*
X666235Y679963D01*
X666106Y679926D01*
X665976Y679861D01*
X665847Y679778D01*
X665717Y679667D01*
X665699Y679648D01*
X665662Y679602D01*
X665616Y679538D01*
X665551Y679436D01*
X665496Y679306D01*
X665440Y679158D01*
X665403Y678983D01*
X665394Y678789D01*
Y678733D01*
X665403Y678696D01*
X665412Y678585D01*
X665440Y678456D01*
X665477Y678317D01*
X665542Y678160D01*
X665625Y678012D01*
X665736Y677873D01*
X665754Y677855D01*
X665801Y677818D01*
X665875Y677762D01*
X665986Y677707D01*
X666115Y677642D01*
X666282Y677587D01*
X666466Y677550D01*
X666679Y677531D01*
X666596Y676727D01*
X666587D01*
X666559Y676736D01*
X666513D01*
X666448Y676745D01*
X666374Y676764D01*
X666291Y676782D01*
X666189Y676810D01*
X666087Y676838D01*
X665865Y676912D01*
X665644Y677023D01*
X665533Y677087D01*
X665422Y677171D01*
X665320Y677254D01*
X665228Y677346D01*
X665218Y677355D01*
X665209Y677374D01*
X665181Y677402D01*
X665154Y677448D01*
X665117Y677503D01*
X665080Y677568D01*
X665033Y677642D01*
X664987Y677735D01*
X664941Y677836D01*
X664895Y677947D01*
X664858Y678067D01*
X664821Y678197D01*
X664793Y678335D01*
X664765Y678484D01*
X664756Y678641D01*
X664747Y678807D01*
Y678900D01*
X664756Y678964D01*
X664765Y679038D01*
X664774Y679131D01*
X664793Y679232D01*
X664811Y679334D01*
X664876Y679575D01*
X664969Y679815D01*
X665024Y679935D01*
X665089Y680055D01*
X665172Y680166D01*
X665265Y680268D01*
X665274Y680277D01*
X665283Y680296D01*
X665320Y680314D01*
X665357Y680351D01*
X665403Y680397D01*
X665468Y680443D01*
X665533Y680490D01*
X665616Y680545D01*
X665791Y680638D01*
X666013Y680730D01*
X666124Y680767D01*
X666254Y680786D01*
X666383Y680804D01*
X666522Y680813D01*
X666540D01*
X666587D01*
X666661Y680804D01*
X666762Y680795D01*
X666873Y680776D01*
X667003Y680739D01*
X667141Y680702D01*
X667280Y680647D01*
X667299Y680638D01*
X667345Y680619D01*
X667419Y680582D01*
X667520Y680527D01*
X667631Y680453D01*
X667770Y680360D01*
X667909Y680249D01*
X668066Y680120D01*
X668084Y680101D01*
X668140Y680055D01*
X668186Y680009D01*
X668232Y679963D01*
X668288Y679907D01*
X668362Y679833D01*
X668436Y679759D01*
X668519Y679667D01*
X668611Y679575D01*
X668713Y679464D01*
X668815Y679343D01*
X668935Y679214D01*
X669055Y679066D01*
X669185Y678918D01*
X669194Y678909D01*
X669212Y678890D01*
X669240Y678853D01*
X669277Y678807D01*
X669333Y678752D01*
X669388Y678687D01*
X669508Y678539D01*
X669647Y678382D01*
X669786Y678234D01*
X669906Y678104D01*
X669952Y678049D01*
X669998Y678003D01*
X670007Y677993D01*
X670035Y677966D01*
X670072Y677929D01*
X670128Y677883D01*
X670192Y677836D01*
X670257Y677781D01*
X670414Y677670D01*
Y680823D01*
X671172D01*
Y676579D01*
D02*
G37*
G36*
X668131Y675839D02*
X668205D01*
X668380Y675830D01*
X668584Y675802D01*
X668796Y675775D01*
X669018Y675728D01*
X669240Y675673D01*
X669249D01*
X669268Y675664D01*
X669296Y675654D01*
X669333Y675645D01*
X669434Y675608D01*
X669564Y675553D01*
X669712Y675497D01*
X669860Y675423D01*
X670017Y675331D01*
X670165Y675238D01*
X670183Y675229D01*
X670229Y675192D01*
X670294Y675137D01*
X670377Y675063D01*
X670470Y674979D01*
X670562Y674878D01*
X670664Y674776D01*
X670747Y674656D01*
X670756Y674637D01*
X670784Y674600D01*
X670821Y674536D01*
X670867Y674443D01*
X670923Y674332D01*
X670969Y674203D01*
X671024Y674055D01*
X671071Y673888D01*
Y673870D01*
X671080Y673842D01*
X671089Y673814D01*
X671098Y673722D01*
X671117Y673593D01*
X671135Y673445D01*
X671154Y673269D01*
X671163Y673075D01*
X671172Y672862D01*
Y670560D01*
X664774D01*
Y673019D01*
X664784Y673186D01*
X664793Y673371D01*
X664811Y673556D01*
X664839Y673740D01*
X664867Y673898D01*
Y673907D01*
X664876Y673925D01*
Y673953D01*
X664895Y673990D01*
X664922Y674092D01*
X664969Y674221D01*
X665033Y674369D01*
X665117Y674526D01*
X665209Y674684D01*
X665329Y674831D01*
X665339Y674841D01*
X665348Y674850D01*
X665376Y674878D01*
X665403Y674915D01*
X665496Y675007D01*
X665625Y675118D01*
X665782Y675238D01*
X665967Y675368D01*
X666180Y675488D01*
X666420Y675590D01*
X666430D01*
X666448Y675599D01*
X666485Y675617D01*
X666540Y675627D01*
X666605Y675654D01*
X666679Y675673D01*
X666762Y675691D01*
X666864Y675719D01*
X666966Y675747D01*
X667086Y675765D01*
X667345Y675811D01*
X667631Y675839D01*
X667946Y675848D01*
X667955D01*
X667973D01*
X668020D01*
X668066D01*
X668131Y675839D01*
D02*
G37*
%LPC*%
G36*
X753966Y850236D02*
X751951D01*
Y848118D01*
X753855D01*
X753966Y848128D01*
X754096Y848137D01*
X754244Y848146D01*
X754392Y848165D01*
X754540Y848192D01*
X754669Y848229D01*
X754688Y848239D01*
X754725Y848257D01*
X754780Y848285D01*
X754854Y848322D01*
X754937Y848377D01*
X755020Y848442D01*
X755104Y848525D01*
X755168Y848618D01*
X755178Y848627D01*
X755196Y848664D01*
X755224Y848719D01*
X755261Y848793D01*
X755288Y848876D01*
X755316Y848969D01*
X755335Y849080D01*
X755344Y849191D01*
Y849200D01*
Y849209D01*
X755335Y849265D01*
X755325Y849348D01*
X755307Y849459D01*
X755261Y849570D01*
X755205Y849699D01*
X755122Y849819D01*
X755011Y849940D01*
X754993Y849949D01*
X754946Y849986D01*
X754872Y850032D01*
X754752Y850088D01*
X754614Y850143D01*
X754429Y850189D01*
X754216Y850226D01*
X753966Y850236D01*
D02*
G37*
G36*
X499716Y669709D02*
X497599D01*
Y667805D01*
X497608Y667694D01*
X497617Y667564D01*
X497626Y667417D01*
X497645Y667269D01*
X497673Y667121D01*
X497710Y666991D01*
X497719Y666973D01*
X497737Y666936D01*
X497765Y666880D01*
X497802Y666806D01*
X497858Y666723D01*
X497922Y666640D01*
X498005Y666557D01*
X498098Y666492D01*
X498107Y666483D01*
X498144Y666464D01*
X498200Y666436D01*
X498274Y666400D01*
X498357Y666372D01*
X498449Y666344D01*
X498560Y666326D01*
X498671Y666316D01*
X498680D01*
X498690D01*
X498745Y666326D01*
X498828Y666335D01*
X498939Y666353D01*
X499050Y666400D01*
X499180Y666455D01*
X499300Y666538D01*
X499420Y666649D01*
X499429Y666668D01*
X499466Y666714D01*
X499512Y666788D01*
X499568Y666908D01*
X499623Y667047D01*
X499670Y667232D01*
X499707Y667444D01*
X499716Y667694D01*
Y669709D01*
D02*
G37*
G36*
X429173Y656546D02*
X427690D01*
Y651656D01*
X429214D01*
X429273Y651664D01*
X429414Y651672D01*
X429573Y651681D01*
X429739Y651706D01*
X429906Y651731D01*
X430047Y651772D01*
X430056D01*
X430064Y651781D01*
X430106Y651797D01*
X430173Y651822D01*
X430256Y651856D01*
X430347Y651906D01*
X430439Y651956D01*
X430539Y652022D01*
X430622Y652097D01*
X430639Y652114D01*
X430672Y652156D01*
X430722Y652222D01*
X430797Y652314D01*
X430872Y652430D01*
X430947Y652572D01*
X431022Y652730D01*
X431089Y652914D01*
Y652922D01*
X431097Y652939D01*
X431106Y652964D01*
X431114Y653005D01*
X431131Y653055D01*
X431147Y653114D01*
X431164Y653180D01*
X431180Y653255D01*
X431189Y653347D01*
X431205Y653439D01*
X431239Y653647D01*
X431255Y653888D01*
X431264Y654147D01*
Y654155D01*
Y654188D01*
Y654247D01*
X431255Y654313D01*
Y654397D01*
X431247Y654488D01*
X431239Y654597D01*
X431222Y654713D01*
X431180Y654963D01*
X431122Y655221D01*
X431039Y655463D01*
X430989Y655580D01*
X430931Y655688D01*
Y655696D01*
X430914Y655713D01*
X430897Y655738D01*
X430872Y655780D01*
X430797Y655871D01*
X430706Y655980D01*
X430589Y656105D01*
X430456Y656221D01*
X430297Y656329D01*
X430214Y656371D01*
X430131Y656413D01*
X430114Y656421D01*
X430098Y656430D01*
X430064Y656438D01*
X430031Y656446D01*
X429981Y656454D01*
X429931Y656471D01*
X429864Y656479D01*
X429798Y656496D01*
X429714Y656505D01*
X429623Y656513D01*
X429523Y656529D01*
X429414Y656538D01*
X429298D01*
X429173Y656546D01*
D02*
G37*
G36*
X423369Y821147D02*
X421220D01*
Y819022D01*
X423178D01*
X423236Y819031D01*
X423369Y819039D01*
X423511Y819047D01*
X423669Y819072D01*
X423811Y819097D01*
X423944Y819139D01*
X423961Y819147D01*
X424002Y819164D01*
X424061Y819189D01*
X424136Y819231D01*
X424211Y819281D01*
X424294Y819347D01*
X424377Y819431D01*
X424444Y819522D01*
X424452Y819531D01*
X424469Y819572D01*
X424502Y819622D01*
X424536Y819697D01*
X424561Y819781D01*
X424594Y819881D01*
X424611Y819980D01*
X424619Y820097D01*
Y820105D01*
Y820114D01*
Y820139D01*
X424611Y820172D01*
X424602Y820255D01*
X424577Y820364D01*
X424536Y820480D01*
X424477Y820605D01*
X424394Y820730D01*
X424286Y820847D01*
X424269Y820864D01*
X424219Y820897D01*
X424144Y820939D01*
X424027Y820997D01*
X423961Y821022D01*
X423886Y821055D01*
X423802Y821080D01*
X423703Y821097D01*
X423602Y821122D01*
X423494Y821130D01*
X423369Y821147D01*
D02*
G37*
G36*
X428610Y821230D02*
X428568D01*
X428535Y821222D01*
X428451Y821214D01*
X428343Y821197D01*
X428226Y821155D01*
X428101Y821105D01*
X427976Y821039D01*
X427860Y820939D01*
X427851Y820922D01*
X427818Y820889D01*
X427768Y820822D01*
X427718Y820747D01*
X427660Y820639D01*
X427618Y820522D01*
X427585Y820389D01*
X427568Y820247D01*
Y820239D01*
Y820230D01*
Y820205D01*
X427576Y820172D01*
X427585Y820089D01*
X427602Y819989D01*
X427635Y819872D01*
X427685Y819747D01*
X427760Y819622D01*
X427851Y819506D01*
X427868Y819497D01*
X427901Y819464D01*
X427968Y819414D01*
X428060Y819364D01*
X428168Y819314D01*
X428301Y819264D01*
X428451Y819231D01*
X428618Y819222D01*
X428660D01*
X428693Y819231D01*
X428776Y819239D01*
X428876Y819256D01*
X428993Y819289D01*
X429118Y819339D01*
X429243Y819414D01*
X429359Y819506D01*
X429376Y819522D01*
X429409Y819556D01*
X429451Y819614D01*
X429509Y819697D01*
X429559Y819797D01*
X429609Y819922D01*
X429643Y820055D01*
X429651Y820205D01*
Y820214D01*
Y820222D01*
Y820247D01*
X429643Y820280D01*
X429634Y820355D01*
X429618Y820455D01*
X429576Y820572D01*
X429526Y820697D01*
X429451Y820814D01*
X429351Y820930D01*
X429334Y820947D01*
X429301Y820980D01*
X429234Y821022D01*
X429143Y821080D01*
X429034Y821139D01*
X428909Y821180D01*
X428768Y821214D01*
X428610Y821230D01*
D02*
G37*
G36*
X428693Y818581D02*
X428535D01*
X428493Y818572D01*
X428443D01*
X428393Y818564D01*
X428260Y818539D01*
X428118Y818489D01*
X427960Y818422D01*
X427810Y818339D01*
X427735Y818281D01*
X427668Y818214D01*
X427651Y818198D01*
X427610Y818148D01*
X427551Y818073D01*
X427493Y817964D01*
X427426Y817831D01*
X427368Y817673D01*
X427327Y817498D01*
X427318Y817398D01*
X427310Y817298D01*
Y817281D01*
Y817240D01*
X427318Y817173D01*
X427327Y817090D01*
X427343Y816990D01*
X427377Y816873D01*
X427410Y816756D01*
X427460Y816640D01*
X427468Y816623D01*
X427493Y816590D01*
X427527Y816531D01*
X427576Y816465D01*
X427643Y816390D01*
X427726Y816306D01*
X427826Y816231D01*
X427935Y816156D01*
X427951Y816148D01*
X427993Y816132D01*
X428051Y816106D01*
X428135Y816073D01*
X428243Y816040D01*
X428351Y816015D01*
X428476Y815998D01*
X428610Y815990D01*
X428668D01*
X428701Y815998D01*
X428751D01*
X428810Y816006D01*
X428943Y816031D01*
X429084Y816081D01*
X429243Y816140D01*
X429401Y816231D01*
X429476Y816281D01*
X429543Y816348D01*
X429551Y816356D01*
X429559Y816365D01*
X429601Y816415D01*
X429659Y816490D01*
X429726Y816598D01*
X429793Y816731D01*
X429851Y816890D01*
X429893Y817065D01*
X429909Y817165D01*
Y817264D01*
Y817273D01*
Y817290D01*
Y817323D01*
X429901Y817365D01*
Y817406D01*
X429893Y817465D01*
X429859Y817598D01*
X429818Y817748D01*
X429751Y817906D01*
X429659Y818064D01*
X429601Y818139D01*
X429534Y818206D01*
Y818214D01*
X429518Y818223D01*
X429468Y818264D01*
X429384Y818323D01*
X429276Y818398D01*
X429134Y818464D01*
X428976Y818522D01*
X428793Y818564D01*
X428693Y818581D01*
D02*
G37*
G36*
X615099Y611111D02*
X613195D01*
X613084Y611102D01*
X612954Y611093D01*
X612807Y611083D01*
X612659Y611065D01*
X612511Y611037D01*
X612381Y611000D01*
X612363Y610991D01*
X612326Y610973D01*
X612270Y610945D01*
X612196Y610908D01*
X612113Y610852D01*
X612030Y610788D01*
X611947Y610704D01*
X611882Y610612D01*
X611873Y610603D01*
X611854Y610566D01*
X611827Y610510D01*
X611790Y610436D01*
X611762Y610353D01*
X611734Y610261D01*
X611716Y610150D01*
X611706Y610039D01*
Y610029D01*
Y610020D01*
X611716Y609965D01*
X611725Y609882D01*
X611743Y609771D01*
X611790Y609660D01*
X611845Y609530D01*
X611928Y609410D01*
X612039Y609290D01*
X612058Y609281D01*
X612104Y609244D01*
X612178Y609197D01*
X612298Y609142D01*
X612437Y609086D01*
X612622Y609040D01*
X612834Y609003D01*
X613084Y608994D01*
X615099D01*
Y611111D01*
D02*
G37*
G36*
X755976Y722077D02*
X753960D01*
Y719960D01*
X755865D01*
X755976Y719969D01*
X756105Y719978D01*
X756253Y719987D01*
X756401Y720006D01*
X756549Y720034D01*
X756679Y720071D01*
X756697Y720080D01*
X756734Y720098D01*
X756790Y720126D01*
X756864Y720163D01*
X756947Y720219D01*
X757030Y720283D01*
X757113Y720366D01*
X757178Y720459D01*
X757187Y720468D01*
X757206Y720505D01*
X757233Y720561D01*
X757270Y720635D01*
X757298Y720718D01*
X757326Y720810D01*
X757344Y720921D01*
X757354Y721032D01*
Y721041D01*
Y721051D01*
X757344Y721106D01*
X757335Y721189D01*
X757317Y721300D01*
X757270Y721411D01*
X757215Y721541D01*
X757132Y721661D01*
X757021Y721781D01*
X757002Y721790D01*
X756956Y721827D01*
X756882Y721873D01*
X756762Y721929D01*
X756623Y721984D01*
X756438Y722031D01*
X756226Y722068D01*
X755976Y722077D01*
D02*
G37*
G36*
X766285Y722169D02*
X766229D01*
X766192Y722160D01*
X766091Y722142D01*
X765971Y722114D01*
X765832Y722058D01*
X765684Y721975D01*
X765610Y721920D01*
X765536Y721864D01*
X765471Y721790D01*
X765406Y721707D01*
Y721698D01*
X765388Y721679D01*
X765369Y721642D01*
X765342Y721596D01*
X765314Y721522D01*
X765277Y721439D01*
X765249Y721337D01*
X765212Y721217D01*
X765175Y721078D01*
X765138Y720921D01*
X765101Y720745D01*
X765074Y720551D01*
X765046Y720329D01*
X765027Y720089D01*
X765018Y719830D01*
X765009Y719544D01*
Y719525D01*
Y719479D01*
Y719396D01*
X765018Y719285D01*
Y719165D01*
X765027Y719017D01*
X765037Y718859D01*
X765055Y718693D01*
X765101Y718332D01*
X765129Y718157D01*
X765166Y717990D01*
X765203Y717833D01*
X765259Y717685D01*
X765314Y717556D01*
X765379Y717445D01*
Y717436D01*
X765397Y717426D01*
X765443Y717362D01*
X765527Y717278D01*
X765628Y717186D01*
X765767Y717094D01*
X765924Y717010D01*
X766100Y716946D01*
X766192Y716936D01*
X766294Y716927D01*
X766350D01*
X766387Y716936D01*
X766479Y716955D01*
X766608Y716992D01*
X766747Y717057D01*
X766904Y717149D01*
X766978Y717204D01*
X767052Y717278D01*
X767126Y717352D01*
X767200Y717445D01*
Y717454D01*
X767219Y717473D01*
X767237Y717500D01*
X767256Y717546D01*
X767293Y717611D01*
X767320Y717694D01*
X767357Y717787D01*
X767394Y717898D01*
X767422Y718036D01*
X767459Y718185D01*
X767496Y718360D01*
X767524Y718545D01*
X767542Y718767D01*
X767561Y718998D01*
X767579Y719257D01*
Y719544D01*
Y719553D01*
Y719562D01*
Y719608D01*
Y719691D01*
X767570Y719802D01*
Y719923D01*
X767561Y720071D01*
X767551Y720228D01*
X767533Y720403D01*
X767487Y720755D01*
X767459Y720930D01*
X767422Y721097D01*
X767385Y721254D01*
X767330Y721402D01*
X767274Y721531D01*
X767209Y721642D01*
Y721652D01*
X767191Y721661D01*
X767172Y721689D01*
X767145Y721725D01*
X767061Y721809D01*
X766960Y721910D01*
X766821Y722003D01*
X766664Y722086D01*
X766581Y722123D01*
X766488Y722151D01*
X766387Y722160D01*
X766285Y722169D01*
D02*
G37*
G36*
X558231Y719629D02*
X558083D01*
X558046Y719620D01*
X557944Y719611D01*
X557824Y719574D01*
X557676Y719528D01*
X557519Y719444D01*
X557362Y719343D01*
X557288Y719269D01*
X557214Y719195D01*
Y719185D01*
X557195Y719176D01*
X557177Y719148D01*
X557158Y719121D01*
X557094Y719028D01*
X557029Y718899D01*
X556955Y718742D01*
X556890Y718548D01*
X556853Y718326D01*
X556835Y718085D01*
Y718076D01*
Y718058D01*
Y718030D01*
X556844Y717984D01*
Y717928D01*
X556853Y717873D01*
X556881Y717734D01*
X556927Y717577D01*
X556983Y717410D01*
X557075Y717244D01*
X557195Y717096D01*
X557214Y717077D01*
X557260Y717041D01*
X557343Y716976D01*
X557445Y716911D01*
X557584Y716837D01*
X557741Y716772D01*
X557917Y716735D01*
X558111Y716717D01*
X558166D01*
X558203Y716726D01*
X558305Y716735D01*
X558425Y716763D01*
X558573Y716809D01*
X558721Y716874D01*
X558869Y716967D01*
X559007Y717096D01*
X559026Y717114D01*
X559063Y717170D01*
X559118Y717253D01*
X559193Y717373D01*
X559257Y717521D01*
X559313Y717697D01*
X559350Y717910D01*
X559368Y718150D01*
Y718159D01*
Y718178D01*
Y718215D01*
X559359Y718261D01*
Y718326D01*
X559350Y718390D01*
X559322Y718538D01*
X559285Y718714D01*
X559220Y718899D01*
X559128Y719075D01*
X559007Y719232D01*
Y719241D01*
X558989Y719250D01*
X558943Y719296D01*
X558869Y719361D01*
X558767Y719435D01*
X558638Y719500D01*
X558490Y719565D01*
X558323Y719611D01*
X558231Y719629D01*
D02*
G37*
G36*
X552776Y719537D02*
X550760D01*
Y717420D01*
X552665D01*
X552776Y717429D01*
X552905Y717438D01*
X553053Y717447D01*
X553201Y717466D01*
X553349Y717494D01*
X553479Y717531D01*
X553497Y717540D01*
X553534Y717558D01*
X553590Y717586D01*
X553664Y717623D01*
X553747Y717679D01*
X553830Y717743D01*
X553913Y717826D01*
X553978Y717919D01*
X553987Y717928D01*
X554006Y717965D01*
X554033Y718021D01*
X554070Y718095D01*
X554098Y718178D01*
X554126Y718270D01*
X554144Y718381D01*
X554154Y718492D01*
Y718501D01*
Y718511D01*
X554144Y718566D01*
X554135Y718649D01*
X554117Y718760D01*
X554070Y718871D01*
X554015Y719001D01*
X553932Y719121D01*
X553821Y719241D01*
X553802Y719250D01*
X553756Y719287D01*
X553682Y719333D01*
X553562Y719389D01*
X553423Y719444D01*
X553238Y719491D01*
X553026Y719528D01*
X552776Y719537D01*
D02*
G37*
G36*
X806854Y809614D02*
X806845D01*
X806827D01*
X806790D01*
X806743Y809604D01*
X806688D01*
X806623Y809595D01*
X806475Y809567D01*
X806309Y809530D01*
X806133Y809466D01*
X805967Y809373D01*
X805810Y809253D01*
X805791Y809234D01*
X805745Y809188D01*
X805689Y809114D01*
X805615Y809013D01*
X805542Y808883D01*
X805486Y808735D01*
X805440Y808560D01*
X805421Y808365D01*
Y808310D01*
X805431Y808273D01*
X805440Y808180D01*
X805468Y808051D01*
X805514Y807912D01*
X805588Y807755D01*
X805680Y807607D01*
X805810Y807459D01*
X805828Y807441D01*
X805874Y807404D01*
X805957Y807339D01*
X806078Y807274D01*
X806216Y807210D01*
X806392Y807145D01*
X806586Y807108D01*
X806808Y807089D01*
X806827D01*
X806873D01*
X806956Y807099D01*
X807058Y807108D01*
X807178Y807126D01*
X807307Y807163D01*
X807446Y807200D01*
X807585Y807256D01*
X807603Y807265D01*
X807650Y807293D01*
X807714Y807330D01*
X807797Y807385D01*
X807881Y807450D01*
X807982Y807533D01*
X808065Y807626D01*
X808149Y807737D01*
X808158Y807755D01*
X808176Y807792D01*
X808213Y807857D01*
X808241Y807940D01*
X808278Y808033D01*
X808315Y808143D01*
X808334Y808264D01*
X808343Y808393D01*
Y808439D01*
X808334Y808476D01*
X808324Y808569D01*
X808297Y808689D01*
X808241Y808819D01*
X808176Y808966D01*
X808075Y809114D01*
X808019Y809188D01*
X807945Y809253D01*
X807936D01*
X807927Y809271D01*
X807871Y809308D01*
X807779Y809364D01*
X807659Y809438D01*
X807502Y809503D01*
X807317Y809558D01*
X807104Y809595D01*
X806854Y809614D01*
D02*
G37*
G36*
X804238Y804344D02*
X804229D01*
X804219D01*
X804164Y804334D01*
X804081Y804325D01*
X803970Y804307D01*
X803859Y804260D01*
X803729Y804205D01*
X803609Y804122D01*
X803489Y804011D01*
X803480Y803992D01*
X803443Y803946D01*
X803397Y803872D01*
X803341Y803752D01*
X803286Y803613D01*
X803239Y803428D01*
X803202Y803216D01*
X803193Y802966D01*
Y800950D01*
X805310D01*
Y802855D01*
X805301Y802966D01*
X805292Y803095D01*
X805283Y803243D01*
X805264Y803391D01*
X805236Y803539D01*
X805199Y803669D01*
X805190Y803687D01*
X805172Y803724D01*
X805144Y803780D01*
X805107Y803854D01*
X805051Y803937D01*
X804987Y804020D01*
X804903Y804103D01*
X804811Y804168D01*
X804802Y804177D01*
X804765Y804196D01*
X804709Y804223D01*
X804635Y804260D01*
X804552Y804288D01*
X804460Y804316D01*
X804349Y804334D01*
X804238Y804344D01*
D02*
G37*
G36*
X486738Y836094D02*
X486729D01*
X486719D01*
X486664Y836084D01*
X486581Y836075D01*
X486470Y836057D01*
X486359Y836010D01*
X486229Y835955D01*
X486109Y835872D01*
X485989Y835761D01*
X485980Y835742D01*
X485943Y835696D01*
X485896Y835622D01*
X485841Y835502D01*
X485785Y835363D01*
X485739Y835178D01*
X485702Y834966D01*
X485693Y834716D01*
Y832701D01*
X487810D01*
Y834605D01*
X487801Y834716D01*
X487792Y834845D01*
X487783Y834993D01*
X487764Y835141D01*
X487736Y835289D01*
X487699Y835419D01*
X487690Y835437D01*
X487672Y835474D01*
X487644Y835530D01*
X487607Y835604D01*
X487551Y835687D01*
X487487Y835770D01*
X487403Y835853D01*
X487311Y835918D01*
X487302Y835927D01*
X487265Y835946D01*
X487209Y835973D01*
X487135Y836010D01*
X487052Y836038D01*
X486960Y836066D01*
X486849Y836084D01*
X486738Y836094D01*
D02*
G37*
G36*
X602399Y844791D02*
X600495D01*
X600384Y844782D01*
X600255Y844773D01*
X600107Y844763D01*
X599959Y844745D01*
X599811Y844717D01*
X599681Y844680D01*
X599663Y844671D01*
X599626Y844653D01*
X599570Y844625D01*
X599496Y844588D01*
X599413Y844532D01*
X599330Y844468D01*
X599247Y844385D01*
X599182Y844292D01*
X599173Y844283D01*
X599154Y844246D01*
X599127Y844190D01*
X599090Y844116D01*
X599062Y844033D01*
X599034Y843941D01*
X599016Y843830D01*
X599006Y843719D01*
Y843709D01*
Y843700D01*
X599016Y843645D01*
X599025Y843562D01*
X599043Y843451D01*
X599090Y843340D01*
X599145Y843210D01*
X599228Y843090D01*
X599339Y842970D01*
X599358Y842961D01*
X599404Y842924D01*
X599478Y842877D01*
X599598Y842822D01*
X599737Y842766D01*
X599922Y842720D01*
X600134Y842683D01*
X600384Y842674D01*
X602399D01*
Y844791D01*
D02*
G37*
G36*
X596630Y846104D02*
X594615D01*
Y843238D01*
X596630Y846104D01*
D02*
G37*
G36*
X540076Y851617D02*
X538060D01*
Y849500D01*
X539965D01*
X540076Y849509D01*
X540205Y849518D01*
X540353Y849527D01*
X540501Y849546D01*
X540649Y849574D01*
X540779Y849611D01*
X540797Y849620D01*
X540834Y849638D01*
X540890Y849666D01*
X540964Y849703D01*
X541047Y849759D01*
X541130Y849823D01*
X541213Y849906D01*
X541278Y849999D01*
X541287Y850008D01*
X541306Y850045D01*
X541333Y850101D01*
X541370Y850175D01*
X541398Y850258D01*
X541426Y850350D01*
X541444Y850461D01*
X541454Y850572D01*
Y850581D01*
Y850591D01*
X541444Y850646D01*
X541435Y850729D01*
X541417Y850840D01*
X541370Y850951D01*
X541315Y851081D01*
X541232Y851201D01*
X541121Y851321D01*
X541102Y851330D01*
X541056Y851367D01*
X540982Y851413D01*
X540862Y851469D01*
X540723Y851524D01*
X540538Y851571D01*
X540326Y851608D01*
X540076Y851617D01*
D02*
G37*
G36*
X497176Y762420D02*
X495059D01*
Y760515D01*
X495068Y760404D01*
X495077Y760275D01*
X495086Y760127D01*
X495105Y759979D01*
X495133Y759831D01*
X495170Y759701D01*
X495179Y759683D01*
X495197Y759646D01*
X495225Y759590D01*
X495262Y759516D01*
X495318Y759433D01*
X495382Y759350D01*
X495466Y759267D01*
X495558Y759202D01*
X495567Y759193D01*
X495604Y759174D01*
X495660Y759146D01*
X495734Y759110D01*
X495817Y759082D01*
X495909Y759054D01*
X496020Y759036D01*
X496131Y759026D01*
X496140D01*
X496150D01*
X496205Y759036D01*
X496288Y759045D01*
X496399Y759063D01*
X496510Y759110D01*
X496640Y759165D01*
X496760Y759248D01*
X496880Y759359D01*
X496889Y759378D01*
X496926Y759424D01*
X496973Y759498D01*
X497028Y759618D01*
X497084Y759757D01*
X497130Y759942D01*
X497167Y760154D01*
X497176Y760404D01*
Y762420D01*
D02*
G37*
G36*
X551506Y765146D02*
X549491D01*
Y763029D01*
X551395D01*
X551506Y763038D01*
X551635Y763047D01*
X551783Y763056D01*
X551931Y763075D01*
X552079Y763103D01*
X552209Y763140D01*
X552227Y763149D01*
X552264Y763167D01*
X552320Y763195D01*
X552394Y763232D01*
X552477Y763288D01*
X552560Y763352D01*
X552643Y763436D01*
X552708Y763528D01*
X552717Y763537D01*
X552736Y763574D01*
X552763Y763630D01*
X552800Y763704D01*
X552828Y763787D01*
X552856Y763879D01*
X552874Y763990D01*
X552884Y764101D01*
Y764110D01*
Y764120D01*
X552874Y764175D01*
X552865Y764258D01*
X552847Y764369D01*
X552800Y764480D01*
X552745Y764610D01*
X552662Y764730D01*
X552551Y764850D01*
X552532Y764859D01*
X552486Y764896D01*
X552412Y764942D01*
X552292Y764998D01*
X552153Y765053D01*
X551968Y765100D01*
X551756Y765137D01*
X551506Y765146D01*
D02*
G37*
G36*
X551599Y618233D02*
X550083D01*
X550018Y618224D01*
X549880Y618215D01*
X549723Y618206D01*
X549556Y618187D01*
X549390Y618159D01*
X549251Y618122D01*
X549232Y618113D01*
X549186Y618104D01*
X549122Y618076D01*
X549038Y618039D01*
X548946Y617984D01*
X548853Y617928D01*
X548761Y617864D01*
X548669Y617790D01*
X548659Y617771D01*
X548622Y617734D01*
X548567Y617669D01*
X548502Y617577D01*
X548428Y617457D01*
X548345Y617318D01*
X548271Y617161D01*
X548206Y616985D01*
Y616976D01*
X548197Y616958D01*
X548188Y616930D01*
X548178Y616893D01*
X548169Y616847D01*
X548151Y616782D01*
X548132Y616717D01*
X548114Y616643D01*
X548086Y616458D01*
X548058Y616246D01*
X548040Y616005D01*
X548031Y615746D01*
Y615737D01*
Y615700D01*
Y615654D01*
X548040Y615580D01*
Y615497D01*
X548049Y615404D01*
X548058Y615293D01*
X548068Y615182D01*
X548114Y614933D01*
X548169Y614674D01*
X548252Y614433D01*
X548308Y614313D01*
X548363Y614212D01*
Y614202D01*
X548382Y614184D01*
X548400Y614156D01*
X548419Y614119D01*
X548493Y614027D01*
X548585Y613916D01*
X548705Y613796D01*
X548844Y613675D01*
X549001Y613574D01*
X549168Y613490D01*
X549186Y613481D01*
X549232Y613472D01*
X549316Y613444D01*
X549436Y613416D01*
X549584Y613398D01*
X549769Y613370D01*
X549880Y613361D01*
X550000D01*
X550120Y613352D01*
X551599D01*
Y618233D01*
D02*
G37*
G36*
X667927Y674979D02*
X667918D01*
X667881D01*
X667835D01*
X667761Y674970D01*
X667678D01*
X667585Y674961D01*
X667474Y674952D01*
X667363Y674942D01*
X667114Y674896D01*
X666855Y674841D01*
X666614Y674758D01*
X666494Y674702D01*
X666393Y674647D01*
X666383D01*
X666365Y674628D01*
X666337Y674610D01*
X666300Y674591D01*
X666208Y674517D01*
X666097Y674425D01*
X665976Y674305D01*
X665856Y674166D01*
X665754Y674009D01*
X665671Y673842D01*
X665662Y673824D01*
X665653Y673777D01*
X665625Y673694D01*
X665597Y673574D01*
X665579Y673426D01*
X665551Y673241D01*
X665542Y673130D01*
Y673010D01*
X665533Y672890D01*
Y671411D01*
X670414D01*
Y672927D01*
X670405Y672992D01*
X670396Y673130D01*
X670387Y673288D01*
X670368Y673454D01*
X670340Y673620D01*
X670303Y673759D01*
X670294Y673777D01*
X670285Y673824D01*
X670257Y673888D01*
X670220Y673972D01*
X670165Y674064D01*
X670109Y674156D01*
X670044Y674249D01*
X669970Y674342D01*
X669952Y674351D01*
X669915Y674388D01*
X669850Y674443D01*
X669758Y674508D01*
X669638Y674582D01*
X669499Y674665D01*
X669342Y674739D01*
X669166Y674804D01*
X669157D01*
X669138Y674813D01*
X669111Y674822D01*
X669074Y674831D01*
X669027Y674841D01*
X668963Y674859D01*
X668898Y674878D01*
X668824Y674896D01*
X668639Y674924D01*
X668427Y674952D01*
X668186Y674970D01*
X667927Y674979D01*
D02*
G37*
%LPD*%
D12*
X726600Y853800D02*
X775600D01*
Y835300D02*
Y853800D01*
X726600Y835300D02*
X775600D01*
X726600D02*
Y853800D01*
X484780Y689121D02*
X503280D01*
X484780Y651999D02*
Y689121D01*
Y651999D02*
X503280D01*
Y689121D01*
X414340Y647280D02*
Y658280D01*
Y647280D02*
X439340D01*
Y658280D01*
X414340D02*
X439340D01*
X401809Y807360D02*
Y825860D01*
Y807360D02*
X438931D01*
Y825860D01*
X401809D02*
X438931D01*
X634511Y605430D02*
Y623930D01*
X597389D02*
X634511D01*
X597389Y605430D02*
Y623930D01*
Y605430D02*
X634511D01*
X734549Y707030D02*
Y725530D01*
Y707030D02*
X771671D01*
Y725530D01*
X734549D02*
X771671D01*
X531349Y704490D02*
Y722990D01*
Y704490D02*
X568471D01*
Y722990D01*
X531349D02*
X568471D01*
X799740Y775600D02*
Y824600D01*
X818240D01*
Y775600D02*
Y824600D01*
X799740Y775600D02*
X818240D01*
X485990Y817850D02*
Y845850D01*
X496990D01*
Y817850D02*
Y845850D01*
X485990Y817850D02*
X496990D01*
X584689Y839110D02*
X621811D01*
X584689D02*
Y857610D01*
X621811D01*
Y839110D02*
Y857610D01*
X515210Y836320D02*
Y855320D01*
Y836320D02*
X559210D01*
Y855320D01*
X515210D02*
X559210D01*
X499240Y747270D02*
Y779270D01*
X483740Y747270D02*
X499240D01*
X483740D02*
Y779270D01*
X499240D01*
X532640Y767210D02*
X564640D01*
Y751710D02*
Y767210D01*
X532640Y751710D02*
X564640D01*
X532640D02*
Y767210D01*
X525050Y602270D02*
X579850D01*
X525050D02*
Y632170D01*
X579850D01*
Y602270D02*
Y632170D01*
X654340Y643160D02*
Y697960D01*
X684240D01*
Y643160D02*
Y697960D01*
X654340Y643160D02*
X684240D01*
M02*
