G04*
G04 #@! TF.GenerationSoftware,Altium Limited,Altium Designer,25.4.2 (15)*
G04*
G04 Layer_Color=0*
%FSLAX44Y44*%
%MOMM*%
G71*
G04*
G04 #@! TF.SameCoordinates,11C6A8BD-48F9-44D4-97C0-98E840ED0286*
G04*
G04*
G04 #@! TF.FilePolarity,Positive*
G04*
G01*
G75*
%ADD46C,0.1000*%
D46*
X746100Y844550D02*
X756100D01*
X751100Y839550D02*
Y849550D01*
X489030Y670560D02*
X499030D01*
X494030Y665560D02*
Y675560D01*
X426840Y647780D02*
Y657780D01*
X421840Y652780D02*
X431840D01*
X420370Y811610D02*
Y821610D01*
X415370Y816610D02*
X425370D01*
X615950Y609680D02*
Y619680D01*
X610950Y614680D02*
X620950D01*
X753110Y711280D02*
Y721280D01*
X748110Y716280D02*
X758110D01*
X549910Y708740D02*
Y718740D01*
X544910Y713740D02*
X554910D01*
X808990Y795100D02*
Y805100D01*
X803990Y800100D02*
X813990D01*
X491490Y826850D02*
Y836850D01*
X486490Y831850D02*
X496490D01*
X598250Y848360D02*
X608250D01*
X603250Y843360D02*
Y853360D01*
X537210Y840820D02*
Y850820D01*
X532210Y845820D02*
X542210D01*
X491490Y758270D02*
Y768270D01*
X486490Y763270D02*
X496490D01*
X543640Y759460D02*
X553640D01*
X548640Y754460D02*
Y764460D01*
X547450Y617220D02*
X557450D01*
X552450Y612220D02*
Y622220D01*
X669290Y665560D02*
Y675560D01*
X664290Y670560D02*
X674290D01*
M02*
