M48
;Layer_Color=9474304
;FILE_FORMAT=4:4
METRIC,LZ
;TYPE=PLATED
T01F00S00C0.7112
T02F00S00C1.1000
T03F00S00C2.5000
%
T01
X0086741Y0060706
X0079629Y0070231
X0082423Y0073787
X0070866
X0070104Y0076581
X0072009
X00702117Y00791017
X0065151Y0075438
X0065405Y007366
X0061722Y0076327
X00598618Y0078867
X00588741Y00736219
X0056007Y0074041
X0052451Y0072898
X004953Y0073406
Y006985
X0047371Y0070866
X0047244Y0075184
X0050927Y0076581
X004953Y0063754
X0046863Y0065024
X00397403Y00651008
X0060198Y00679069
X0064262Y0061595
X0070866Y0061341
X0070231Y0065151
X0077851Y0061468
X0078486Y0083185
X0071755Y0084074
X0070231Y0083185
X00702063Y00806697
X0065024Y0084455
X0063627Y0085725
X005969Y0080645
X0045339Y0081534
X004064Y0083693
T02
X00890884Y00646365
Y00697165
Y00774635
X00415946Y00756985
Y00706185
X00890884Y00825435
T03
X0093599Y005842
X0038227Y0058928
X0037846Y0086233
M30
